<?xml version="1.0" standalone="no"?>
<!DOCTYPE svg PUBLIC "-//W3C//DTD SVG 1.1//EN" "http://www.w3.org/Graphics/SVG/1.1/DTD/svg11.dtd" >
<svg xmlns="http://www.w3.org/2000/svg">
<metadata>Generated by IcoMoon</metadata>
<defs>
<font id="otms" horiz-adv-x="1024">
<font-face units-per-em="1024" ascent="960" descent="-64" />
<missing-glyph horiz-adv-x="1024" />
<glyph unicode="&#x20;" horiz-adv-x="512" d="" />
<glyph unicode="&#xe900;" glyph-name="milestone-billing" d="M512-64c-282.77 0-512 229.23-512 512s229.23 512 512 512c282.77 0 512-229.23 512-512s-229.23-512-512-512zM551.392 503.478c-4.409 0-4.409 4.409-8.818 4.409v136.68c52.908-4.409 96.999-26.454 96.999-26.454l39.681 79.362c-4.409 0-66.135 35.272-136.68 35.272v70.544h-44.090v-70.544c-35.272-8.818-61.726-22.045-88.181-39.681-26.454-26.454-44.090-61.726-44.090-101.408 0-30.863 8.818-101.408 132.271-158.725v-171.952c-39.681 8.818-88.181 30.863-105.817 39.681l-44.090-74.953c8.818-4.409 79.363-44.090 149.907-52.908v-74.953h44.090v74.953c101.408 13.227 158.725 92.59 158.725 167.543 0 66.135-44.090 119.044-149.907 163.134zM499.666 530.241c-35.272 22.045-44.090 44.090-44.090 57.317 0 17.636 4.409 30.863 17.636 39.681 8.818 4.409 17.636 8.818 26.454 13.227v-110.226zM539.314 257.953v149.907c48.499-22.045 70.544-48.499 70.544-70.544 0-26.454-13.227-70.544-70.544-79.363v0z" />
<glyph unicode="&#xe901;" glyph-name="milestone-created" d="M512-64c-282.77 0-512 229.23-512 512s229.23 512 512 512c282.77 0 512-229.23 512-512s-229.23-512-512-512zM853.333 526.769h-262.564v262.564h-157.538v-262.564h-262.564v-157.538h262.564v-262.564h157.538v262.564h262.564v157.538z" />
<glyph unicode="&#xe902;" glyph-name="milestone-delivery" d="M512-64c-282.77 0-512 229.23-512 512s229.23 512 512 512c282.77 0 512-229.23 512-512s-229.23-512-512-512zM587.639 532.13v210.744h-151.278v-210.744h-75.639l151.278-175.62 151.278 175.62h-75.639zM701.097 722.61h-75.639v-35.124h49.165l98.331-280.992h-147.496v-70.248h-226.917v70.248h-147.496l98.331 280.992h49.165v35.124h-75.639l-113.458-316.116v-175.62h605.111v175.62l-113.458 316.116z" />
<glyph unicode="&#xe903;" glyph-name="milestone-dispatch" d="M512-64c282.77 0 512 229.23 512 512s-229.23 512-512 512c-282.77 0-512-229.23-512-512s229.23-512 512-512zM199.111 348.444h213.333v-213.333h-213.333v213.333zM625.778 348.444h213.333v-213.333h-213.333v213.333zM570.311 416.711c0 0-25.6 21.333-42.667 51.2-4.267 4.267-4.267 8.533-8.533 12.8-4.267-4.267-4.267-8.533-8.533-12.8-17.067-29.867-42.667-51.2-42.667-51.2l29.867-25.6h-85.333v76.8l25.6-21.333c0 0 25.6 21.333 38.4 42.667s21.333 46.933 21.333 72.533h-128v256h298.667v-256h-128c0-25.6 8.533-51.2 21.333-72.533s38.4-42.667 38.4-42.667l25.6 21.333v-76.8h-85.333l29.867 25.6z" />
<glyph unicode="&#xe904;" glyph-name="milestone-epod" d="M512-64c282.77 0 512 229.23 512 512s-229.23 512-512 512c-282.77 0-512-229.23-512-512s229.23-512 512-512zM487.077 153.532l-307.742 225.388 73.685 104.025 208.051-151.704 286.070 368.423 99.691-78.019-359.754-468.114z" />
<glyph unicode="&#xe905;" glyph-name="milestone-intransit-event" d="M512-64c-282.77 0-512 229.23-512 512s229.23 512 512 512c282.77 0 512-229.23 512-512s-229.23-512-512-512zM881.778 454.898c0 197.12-160 362.88-355.556 362.88s-355.556-165.76-355.556-362.88c0-62.72 13.333-129.92 40-174.72h217.778c22.222-26.88 57.778-44.8 97.778-44.8s75.556 17.92 97.778 44.8h217.778c26.667 44.8 40 112 40 174.72zM792.889 593.778v-44.8l-182.222-156.8c0-4.48 4.444-13.44 4.444-22.4 0-49.28-40-89.6-88.889-89.6s-88.889 40.32-88.889 89.6c0 49.28 40 89.6 88.889 89.6 13.333 0 26.667-4.48 35.556-8.96l186.667 143.36h44.444zM615.111 728.178h44.444v-44.8h-44.444v44.8zM392.889 728.178h44.444v-44.8h-44.444v44.8zM259.556 369.778h-44.444v44.8h44.444v-44.8zM304 548.978h-44.444v44.8h44.444v-44.8zM837.333 369.778h-44.444v44.8h44.444v-44.8z" />
<glyph unicode="&#xe906;" glyph-name="milestone-pickup" d="M512-64c-282.77 0-512 229.23-512 512s229.23 512 512 512c282.77 0 512-229.23 512-512s-229.23-512-512-512zM435.861 615.097v-220.417h152.278v220.417h76.139l-152.278 183.681-152.278-183.681h76.139zM702.347 725.306h-76.139l34.262-36.736h15.228l98.981-293.889h-148.471v-73.472h-228.417v73.472h-148.471l98.981 293.889h15.228l34.262 36.736h-76.139l-114.208-330.625v-183.681h609.111v183.681l-114.208 330.625z" />
<glyph unicode="&#xe907;" glyph-name="milestone-release" d="M1024 448c0 281.6-230.4 512-512 512s-512-230.4-512-512c0-281.6 230.4-512 512-512s512 230.4 512 512v0zM448 550.4l-115.2-115.2-89.6 89.6 268.8 268.8 268.8-268.8-89.6-89.6-115.2 115.2v-422.4h-128v422.4z" />
<glyph unicode="&#xe908;" glyph-name="milestone-SLA" d="M512-64c-282.77 0-512 229.23-512 512s229.23 512 512 512c282.77 0 512-229.23 512-512s-229.23-512-512-512zM520.167 789.333c-191.060 0-349.5-157.554-349.5-347.545s158.44-347.545 349.5-347.545c191.060 0 349.5 157.554 349.5 347.545s-158.44 347.545-349.5 347.545zM541.988 670.749h-58.067v-288.711h232.268v57.742h-174.201v230.969z" />
<glyph unicode="&#xe909;" glyph-name="timeline-exception" d="M512-64c282.77 0 512 229.23 512 512s-229.23 512-512 512c-282.77 0-512-229.23-512-512s229.23-512 512-512zM512 817.778l341.333-597.333h-682.667l341.333 597.333zM469.333 404.358v222.436h85.333v-222.436h-85.333zM512 285.46c-25.6 0-42.667 16.894-42.667 42.236s17.067 42.236 42.667 42.236c25.6 0 42.667-16.894 42.667-42.236s-17.067-42.236-42.667-42.236z" />
<glyph unicode="&#xe90a;" glyph-name="timeline-order-file" d="M512-64c-282.77 0-512 229.23-512 512s229.23 512 512 512c282.77 0 512-229.23 512-512s-229.23-512-512-512zM768 405.333h-4.267c0 12.8 4.267 25.6 4.267 42.667 0 68.267-42.667 128-102.4 153.6l-153.6 187.733-106.667-128c-59.733 0-106.667-46.933-106.667-106.667 0-25.6 8.533-46.933 25.6-68.267-8.533 4.267-17.067 4.267-25.6 4.267-72.533 0-128-55.467-128-128s55.467-128 128-128h469.333c46.933 0 85.333 38.4 85.333 85.333s-38.4 85.333-85.333 85.333zM536.178 587.378v-256h-85.333v256h-81.067l123.733 145.067 123.733-145.067h-81.067z" />
<glyph unicode="&#xe90b;" glyph-name="export" d="M256 320c0 0 58.824 192 384 192v-192l384 256-384 256v-192c-256 0-384-159.672-384-320zM704 192h-576v384h125.876c10.094 11.918 20.912 23.334 32.488 34.18 43.964 41.19 96.562 72.652 156.114 93.82h-442.478v-640h832v268.624l-128-85.334v-55.29z" />
<glyph unicode="&#xe90c;" glyph-name="share-link" d="M864 256c-45.16 0-85.92-18.738-115.012-48.83l-431.004 215.502c1.314 8.252 2.016 16.706 2.016 25.328s-0.702 17.076-2.016 25.326l431.004 215.502c29.092-30.090 69.852-48.828 115.012-48.828 88.366 0 160 71.634 160 160s-71.634 160-160 160-160-71.634-160-160c0-8.622 0.704-17.076 2.016-25.326l-431.004-215.504c-29.092 30.090-69.852 48.83-115.012 48.83-88.366 0-160-71.636-160-160 0-88.368 71.634-160 160-160 45.16 0 85.92 18.738 115.012 48.828l431.004-215.502c-1.312-8.25-2.016-16.704-2.016-25.326 0-88.368 71.634-160 160-160s160 71.632 160 160c0 88.364-71.634 160-160 160z" />
<glyph unicode="&#xe90d;" glyph-name="equalizer2" d="M896 512h16c26.4 0 48 21.6 48 48v160c0 26.4-21.6 48-48 48h-16v192h-128v-192h-16c-26.4 0-48-21.6-48-48v-160c0-26.4 21.6-48 48-48h16v-576h128v576zM768 704h128v-128h-128v128zM592 128c26.4 0 48 21.6 48 48v160c0 26.4-21.6 48-48 48h-16v576h-128v-576h-16c-26.4 0-48-21.6-48-48v-160c0-26.4 21.6-48 48-48h16v-192h128v192h16zM448 320h128v-128h-128v128zM272 512c26.4 0 48 21.6 48 48v160c0 26.4-21.6 48-48 48h-16v192h-128v-192h-16c-26.4 0-48-21.6-48-48v-160c0-26.4 21.6-48 48-48h16v-576h128v576h16zM128 704h128v-128h-128v128z" />
<glyph unicode="&#xe90e;" glyph-name="equalizer" d="M448 832v16c0 26.4-21.6 48-48 48h-160c-26.4 0-48-21.6-48-48v-16h-192v-128h192v-16c0-26.4 21.6-48 48-48h160c26.4 0 48 21.6 48 48v16h576v128h-576zM256 704v128h128v-128h-128zM832 528c0 26.4-21.6 48-48 48h-160c-26.4 0-48-21.6-48-48v-16h-576v-128h576v-16c0-26.4 21.6-48 48-48h160c26.4 0 48 21.6 48 48v16h192v128h-192v16zM640 384v128h128v-128h-128zM448 208c0 26.4-21.6 48-48 48h-160c-26.4 0-48-21.6-48-48v-16h-192v-128h192v-16c0-26.4 21.6-48 48-48h160c26.4 0 48 21.6 48 48v16h576v128h-576v16zM256 64v128h128v-128h-128z" />
<glyph unicode="&#xe90f;" glyph-name="capacity" d="M512 960l-512-128v-640l512-256 512 256v640l-512 128zM512 896l134.4-32-377.6-121.6-147.2 51.2 390.4 102.4zM512 6.4l-448 224v518.4l192-64v-217.6l64-19.2v211.2l192-64v-588.8zM544 652.8l-172.8 57.6 396.8 121.6 153.6-38.4-377.6-140.8z" />
<glyph unicode="&#xe910;" glyph-name="star-full" d="M1024 562.95l-353.78 51.408-158.22 320.582-158.216-320.582-353.784-51.408 256-249.538-60.432-352.352 316.432 166.358 316.432-166.358-60.434 352.352 256.002 249.538z" />
<glyph unicode="&#xe911;" glyph-name="done" d="M512 960c-281.6 0-512-230.4-512-512s230.4-512 512-512c281.6 0 512 230.4 512 512s-230.4 512-512 512v0zM454.4 211.2l-268.8 262.4 89.6 89.6 172.8-172.8 320 313.6 89.6-89.6-403.2-403.2z" />
<glyph unicode="&#xe912;" glyph-name="emptypageicon" horiz-adv-x="1172" d="M952.216 960h-732.444l-219.733-658.286v-365.714h1171.911v365.714l-219.733 658.286zM805.727 301.714v-146.286h-439.467v146.286h-285.653l197.76 585.143h629.902l197.76-585.143h-300.302z" />
<glyph unicode="&#xe913;" glyph-name="errormessage" d="M512 960c282.304 0 512-229.632 512-512 0-282.304-229.696-512-512-512s-512 229.696-512 512c0 282.368 229.696 512 512 512v0zM512 35.136c227.648 0 412.864 185.216 412.864 412.864 0 227.712-185.28 412.864-412.864 412.864-227.648 0-412.928-185.216-412.928-412.864 0-227.712 185.216-412.864 412.928-412.864v0z" />
<glyph unicode="&#xe914;" glyph-name="lastseen" d="M512 704h-64v-320h256v64h-192v256zM1024 512v256l-70.4-70.4c-83.2 160-249.6 262.4-441.6 262.4-281.6 0-512-230.4-512-512s230.4-512 512-512c153.6 0 294.4 70.4 384 179.2l-96 83.2c-70.4-83.2-172.8-134.4-288-134.4-211.2 0-384 172.8-384 384s172.8 384 384 384c153.6 0 288-96 352-224l-96-96h256z" />
<glyph unicode="&#xe915;" glyph-name="length" horiz-adv-x="960" d="M298.377 927.991l-298.365-298.365 46.52-46.52 298.365 298.365-46.52 46.52zM549.39 300.298l-217.093 217.093-78.503-78.503-79.148 282.672 282.672-79.148-58.15-58.15 217.093-217.093 58.15 58.15 45.227-161.527 59.442-59.442-33.436-33.436 7.915-28.267-28.267 7.915-13.083-13.083-23.26 23.26-218.062 61.057 78.503 78.503zM913.472 312.898l-298.365-298.365 46.52-46.52 298.365 298.365-46.52 46.52z" />
<glyph unicode="&#xe916;" glyph-name="mobile" horiz-adv-x="585" d="M4.501 960v-1024h576v1024h-576zM324.501 0h-64v64h64v-64zM516.501 128h-448v704h448v-704z" />
<glyph unicode="&#xe917;" glyph-name="QTY" horiz-adv-x="1126" d="M825.816 538.119v0 285.355l-300.373 135.168-300.373-135.168v-315.392l-225.28-97.621v-330.411l300.373-135.168 262.827 112.64 262.827-120.149 300.373 135.168v337.92l-300.373 127.659zM525.442 876.039l210.261-90.112-202.752-82.603-195.243 90.112 187.733 82.603zM525.442 658.269v-217.771l-225.28 97.621v225.28l225.28-105.131zM300.162 19.975l-225.28 97.621v225.28l225.28-105.131v-217.771zM300.162 282.802l-195.243 90.112 195.243 82.603 210.261-90.112-210.261-82.603zM825.816 19.975l-225.28 97.621v225.28l225.28-105.131v-217.771zM825.816 282.802l-195.243 90.112 195.243 82.603 210.261-90.112-210.261-82.603z" />
<glyph unicode="&#xe918;" glyph-name="trucktype" d="M472.615 960h-472.615v-472.615l551.385-551.385 472.615 472.615-551.385 551.385zM220.554 644.923c-55.138 0-102.4 47.262-102.4 94.523s47.262 94.523 94.523 94.523c47.262 0 102.4-39.385 102.4-94.523s-47.262-94.523-94.523-94.523v0z" />
<glyph unicode="&#xe919;" glyph-name="volum" d="M512 960l-512-128v-640l512-256 512 256v640l-512 128zM921.6 793.6l-377.6-140.8-422.4 140.8 390.4 102.4 409.6-102.4zM64 230.4v518.4l448-153.6v-588.8l-448 224z" />
<glyph unicode="&#xe91a;" glyph-name="weight" horiz-adv-x="1155" d="M938.526 953.448h-144.41v-72.205h93.867l187.733-577.641h-281.6v-144.41h-433.231v144.41h-281.6l187.733 577.641h93.867v72.205h-144.41l-216.615-649.846v-361.026h1155.282v361.026l-216.615 649.846z" />
<glyph unicode="&#xe91b;" horiz-adv-x="1376" d="M512 96h256.096c35.265 0 63.904 28.759 63.904 64.235v671.814c0 70.592-57.387 127.951-128.177 127.951h-575.647c-70.99 0-128.177-57.286-128.177-127.951v-671.814c0-35.488 28.611-64.235 63.904-64.235h128.096c0-88.366 71.634-160 160-160s160 71.634 160 160z" />
<glyph unicode="&#xe91c;" horiz-adv-x="1376" d="M1024 608h149.333c18.391 0 74.667-80.812 74.667-96v-128h-224v224zM1308.799 128h34.961c17.874 0 32.239 14.421 32.239 32.21v335.396c0 67.454-139.455 240.395-193.062 240.395h-254.987c-17.715 0-31.951-14.252-31.951-31.833v-544.335c0-17.403 14.434-31.833 32.239-31.833h66.961c-2.099-10.34-3.201-21.041-3.201-32 0-88.366 71.634-160 160-160s160 71.634 160 160c0 10.959-1.102 21.66-3.201 32z" />
<glyph unicode="&#xe91d;" horiz-adv-x="1376" d="M448 96c0-53.019-42.981-96-96-96s-96 42.981-96 96c0 53.019 42.981 96 96 96s96-42.981 96-96z" />
<glyph unicode="&#xe91e;" glyph-name="star-empty" d="M1024 562.95l-353.78 51.408-158.22 320.582-158.216-320.582-353.784-51.408 256-249.538-60.432-352.352 316.432 166.358 316.432-166.358-60.434 352.352 256.002 249.538zM512 206.502l-223.462-117.48 42.676 248.83-180.786 176.222 249.84 36.304 111.732 226.396 111.736-226.396 249.836-36.304-180.788-176.222 42.678-248.83-223.462 117.48z" />
<glyph unicode="&#xe91f;" glyph-name="star-half" d="M1024 562.95l-353.78 51.408-158.22 320.582-158.216-320.582-353.784-51.408 256-249.538-60.432-352.352 316.432 166.358 316.432-166.358-60.434 352.352 256.002 249.538zM512 206.502l-0.942-0.496 0.942 570.768 111.736-226.396 249.836-36.304-180.788-176.222 42.678-248.83-223.462 117.48z" />
<glyph unicode="&#xe920;" horiz-adv-x="1376" d="M1248 96c0-53.019-42.981-96-96-96s-96 42.981-96 96c0 53.019 42.981 96 96 96s96-42.981 96-96z" />
<glyph unicode="&#xe921;" horiz-adv-x="1376" d="M1024 608h149.333c18.391 0 74.667-80.812 74.667-96v-128h-224v224z" />
<glyph unicode="&#xe922;" glyph-name="calendar" d="M896 896v-192h-192v192h-384v-192h-192v192h-128v-960h1024v960h-128zM192 0h-128v128h128v-128zM192 192h-128v128h128v-128zM192 384h-128v128h128v-128zM384 0h-128v128h128v-128zM384 192h-128v128h128v-128zM384 384h-128v128h128v-128zM576 0h-128v128h128v-128zM576 192h-128v128h128v-128zM576 384h-128v128h128v-128zM768 0h-128v128h128v-128zM768 192h-128v128h128v-128zM768 384h-128v128h128v-128zM960 0h-128v128h128v-128zM960 192h-128v128h128v-128zM960 384h-128v128h128v-128zM192 960h64v-192h-64v192zM768 960h64v-192h-64v192z" />
<glyph unicode="&#xe923;" glyph-name="refresh" d="M166.4 601.6c57.6 134.4 192 230.4 345.6 230.4 192 0 345.6-140.8 377.6-320h128c-32 249.6-243.2 448-505.6 448-192 0-358.4-102.4-441.6-262.4l-70.4 70.4v-256h256l-89.6 89.6zM1024 384h-262.4l96-89.6c-57.6-134.4-192-230.4-352-230.4-185.6 0-345.6 140.8-377.6 320h-128c32-249.6 249.6-448 505.6-448 192 0 358.4 108.8 448 262.4l70.4-70.4v256z" />
<glyph unicode="&#xe924;" glyph-name="notification" horiz-adv-x="768" d="M256 64h256c0 0 6.4-128-128-128s-128 128-128 128v0zM684.8 230.4c-32 12.8-44.8 44.8-44.8 76.8v332.8c0 0-12.8 153.6-192 185.6v70.4c0 0 6.4 64-64 64s-64-64-64-64v-70.4c-179.2-32-192-185.6-192-185.6v-332.8c0-32-19.2-64-44.8-76.8l-83.2-38.4v-64h768v64l-83.2 38.4z" />
<glyph unicode="&#xe925;" glyph-name="settings" d="M1024 384v128l-108.8 38.4c-12.8 38.4-25.6 76.8-44.8 115.2l51.2 102.4-89.6 89.6-102.4-51.2c-32 19.2-70.4 38.4-115.2 44.8l-38.4 108.8h-128l-38.4-108.8c-38.4-12.8-76.8-25.6-108.8-44.8l-102.4 51.2-96-96 51.2-102.4c-19.2-32-32-70.4-44.8-108.8l-108.8-38.4v-128l108.8-38.4c12.8-38.4 25.6-76.8 44.8-115.2l-51.2-102.4 89.6-89.6 102.4 51.2c32-19.2 70.4-38.4 115.2-44.8l38.4-108.8h128l38.4 108.8c38.4 12.8 76.8 25.6 115.2 44.8l102.4-51.2 89.6 89.6-51.2 102.4c19.2 32 38.4 70.4 44.8 115.2l108.8 38.4zM512 192c-140.8 0-256 115.2-256 256s115.2 256 256 256c140.8 0 256-115.2 256-256s-115.2-256-256-256v0zM678.4 454.4c0-88.368-71.632-160-160-160s-160 71.632-160 160c0 88.368 71.632 160 160 160s160-71.632 160-160v0z" />
<glyph unicode="&#xe926;" glyph-name="copy" d="M384 960v-192h192l-192 192zM576 704h-256v256h-320v-768h576v512zM832 704v-192h192l-192 192zM768 704h-128v-576h-192v-192h576v512h-256v256z" />
<glyph unicode="&#xe927;" glyph-name="create" horiz-adv-x="1078" d="M1054.857 267.066h-184.782v184.782h-123.188v-184.782h-184.782v-123.188h184.782v-184.782h123.188v184.782h184.782v123.188zM195.621 936.901h57.488v-172.463h-57.488v172.463zM655.523 936.901h57.488v-172.463h-57.488v172.463zM402.577 132.073h-321.931v459.902h747.34v-34.493c22.995-11.498 40.241-22.995 57.488-40.241v362.173h-114.975v-172.463h-172.463v172.463h-287.439v-172.463h-172.463v172.463h-114.975v-804.828h419.66c-17.246 17.246-28.744 34.493-40.241 57.488v0z" />
<glyph unicode="&#xe928;" glyph-name="delete" horiz-adv-x="832" d="M13.71 754.29v-73.143h73.143v-658.286c0 0 80.457-73.143 329.143-73.143s329.143 73.143 329.143 73.143v658.286h73.143v73.143h-804.571zM306.281 96.004h-73.143v512h73.143v-512zM452.567 96.004h-73.143v512h73.143v-512zM598.853 96.004h-73.143v512h73.143v-512zM598.853 946.29h-365.714c-117.029-21.943-146.286-58.514-146.286-58.514h-73.143v-73.143h804.571v73.143h-73.143c0 0 0 36.571-146.286 58.514z" />
<glyph unicode="&#xe929;" glyph-name="dropdown" horiz-adv-x="1843" d="M1638.4 89.6h-1433.6c-33.163 0-51.2 18.037-51.2 51.2v614.4c0 33.163 18.037 51.2 51.2 51.2h1433.6c33.163 0 51.2-18.037 51.2-51.2v-614.4c0-33.163-18.037-51.2-51.2-51.2v0zM1638.4-12.8c89.717 0 153.6 63.883 153.6 153.6v614.4c0 89.717-63.883 153.6-153.6 153.6h-1433.6c-89.717 0-153.6-63.883-153.6-153.6v-614.4c0-89.717 63.883-153.6 153.6-153.6h1433.6zM1484.8 652.8h-614.4l307.2-409.6 307.2 409.6z" />
<glyph unicode="&#xe92a;" glyph-name="edit" d="M65.18 199.58l-64-262.4 262.4 64 588.8 588.8-198.4 198.4-588.8-588.8zM97.18 1.18l-25.6 32 25.6 128 128-128-128-32zM980.38 916.38c-70.4 70.4-166.4 32-166.4 32l-96-96 198.4-198.4 96 96c0 6.4 38.4 96-32 166.4v0zM858.78 858.78l-32 32c38.4 38.4 70.4 6.4 70.4 6.4l-38.4-38.4z" />
<glyph unicode="&#xe92b;" glyph-name="forward" horiz-adv-x="1152" d="M95.623 761.218h316.235c6.024 0 15.059-6.024 15.059-15.059 0-6.024-3.012-9.035-6.024-12.047-15.059-9.035-27.106-18.071-39.153-30.118v0c-3.012-3.012-6.024-6.024-9.035-6.024-18.071-12.047-39.153-21.082-63.247-21.082h-165.647c-15.059 0-27.106-12.047-27.106-27.106v0-584.282c0-15.059 12.047-24.094 24.094-27.106h710.776c15.059 0 24.094 12.047 24.094 27.106v0 195.765c0 18.071 9.035 33.129 18.071 42.165v0l39.153 36.141c3.012 3.012 6.024 3.012 9.035 3.012 6.024 0 15.059-6.024 15.059-15.059v-316.235c0-33.129-27.106-60.235-60.235-60.235h-801.129c-33.129 0-60.235 27.106-60.235 60.235v686.682c0 36.141 27.106 63.247 60.235 63.247v0zM872.658 378.724l-69.271-66.259c-6.024-3.012-12.047-6.024-18.071-6.024-15.059 0-27.106 12.047-27.106 27.106v0 108.424c0 0 0 0 0 3.012 0 0 0 0 0 3.012 0 33.129-27.106 60.235-60.235 60.235v0c-165.647-3.012-304.188-24.094-412.612-123.482v0c-3.012-3.012-3.012-3.012-6.024-6.024v0c-3.012-3.012-9.035-6.024-15.059-6.024-15.059 0-27.106 12.047-27.106 27.106 0 3.012 0 9.035 3.012 12.047 42.165 90.353 111.435 198.776 222.871 271.059 57.224 39.153 126.494 69.271 210.824 81.318 12.047 3.012 21.082 3.012 33.129 3.012 30.118 3.012 54.212 27.106 54.212 60.235 0 0 0 0 0 3.012 0 0 0 0 0 3.012v84.329c0 15.059 12.047 27.106 27.106 27.106 6.024 0 12.047-3.012 18.071-6.024v0l289.129-259.012 3.012-3.012c12.047-12.047 18.071-27.106 18.071-45.176 0-15.059-6.024-30.118-15.059-39.153l-9.035-9.035-219.859-204.8z" />
<glyph unicode="&#xe92c;" glyph-name="numeric" horiz-adv-x="2341" d="M131.766 959.962l-131.737-73.188 29.275-102.463 102.463 43.913v-453.786h146.375v585.529h-146.375zM1258.906 696.478c43.913 29.275 73.188 73.188 73.188 117.102 0 73.188-58.55 146.375-190.292 146.375-73.188 0-146.375-14.638-175.653-43.913h-14.638l29.275-117.102 14.638 14.638c14.638 14.638 58.55 29.275 102.463 29.275s58.55-14.638 58.55-43.913c0-58.55-73.188-58.55-87.826-58.55h-58.55v-102.463h58.55c43.913 0 87.826-14.638 87.826-58.55 0-29.275-29.275-58.55-87.826-58.55s-102.463 29.275-117.102 29.275l-14.638 14.638v-131.737h14.638c29.275-29.275 87.826-43.913 161.014-43.913 146.375 0 234.207 73.188 234.207 175.653 0 58.55-29.275 117.102-87.826 131.737v0zM439.165 901.412l43.913-146.375c0 0 102.463 87.826 175.653 43.913 161.014-117.102-234.207-351.316-234.207-351.316v-73.188h439.148v146.375h-175.653c87.826 73.188 175.653 175.653 146.375 278.124-73.188 278.124-395.232 102.463-395.232 102.463v0z" />
<glyph unicode="&#xe92d;" glyph-name="text" horiz-adv-x="896" d="M32 896v-288h288l-32 32v-672h320v672l-32-32h288v320h-832v-32zM96 896l-32-32h768l-32 32v-256l32 32h-288v-672l32 32h-256l32-32v672h-288l32-32v256z" />
<glyph unicode="&#xe92e;" glyph-name="close" d="M52.715 821.649l833.395-833.395c23.523-23.523 61.662-23.523 85.186 0s23.523 61.662 0 85.186l-833.395 833.395c-23.523 23.523-61.662 23.523-85.186 0s-23.523-61.662 0-85.186v0zM137.9-10.847l833.395 833.395c23.523 23.523 23.523 61.662 0 85.186s-61.662 23.523-85.186 0l-833.395-833.395c-23.523-23.523-23.523-61.662 0-85.186s61.662-23.523 85.186 0v0z" />
<glyph unicode="&#xe92f;" glyph-name="propose" d="M512 704h-64v-320h256v64h-192v256zM512 960c-192 0-358.4-102.4-441.6-262.4l-70.4 70.4v-256h256l-96 96c64 128 198.4 224 352 224 211.2 0 384-172.8 384-384s-172.8-384-384-384c-115.2 0-217.6 51.2-288 134.4l-96-83.2c89.6-108.8 230.4-179.2 384-179.2 281.6 0 512 230.4 512 512s-230.4 512-512 512v0z" />
<glyph unicode="&#xe930;" glyph-name="accept-btn" horiz-adv-x="1401" d="M12.471 491.036l428.165-510.321c20.324-24.223 57.038-25.827 79.397-3.469l865.309 865.309c21.047 21.047 21.047 55.171 0 76.219s-55.171 21.047-76.219 0l-865.309-865.309 79.397-3.469-428.165 510.321c-19.132 22.802-53.126 25.778-75.928 6.647s-25.778-53.126-6.647-75.928v0z" />
<glyph unicode="&#xe931;" glyph-name="add" d="M1024 512h-448v448h-128v-448h-448v-128h448v-448h128v448h448v128z" />
<glyph unicode="&#xe932;" glyph-name="propose-btn" horiz-adv-x="979" d="M364.031 603.818h-275.225v311.652c0 24.589 19.933 44.522 44.522 44.522s44.522-19.933 44.522-44.522v-267.13l-44.522 44.522h230.704c24.589 0 44.522-19.933 44.522-44.522s-19.933-44.522-44.522-44.522v0zM444.979 670.601v-267.13c0-24.589 19.933-44.522 44.522-44.522s44.522 19.933 44.522 44.522v267.13c0 24.589-19.933 44.522-44.522 44.522s-44.522-19.933-44.522-44.522v0zM511.762 336.688h227.017c24.589 0 44.522 19.933 44.522 44.522s-19.933 44.522-44.522 44.522h-227.017c-24.589 0-44.522-19.933-44.522-44.522s19.933-44.522 44.522-44.522v0zM107.89 735.854c92.369 115.149 231.441 183.488 381.611 183.488 270.519 0 489.739-220.173 489.739-491.675s-219.22-491.675-489.739-491.675c-270.519 0-489.739 220.173-489.739 491.675h89.043c0-222.41 179.441-402.631 400.696-402.631s400.696 180.221 400.696 402.631c0 222.41-179.441 402.631-400.696 402.631-122.849 0-236.496-55.846-312.153-150.161l-69.458 55.717z" />
<glyph unicode="&#xe933;" glyph-name="error" horiz-adv-x="1170" d="M584.99 960l-585.143-1024h1170.286l-585.143 1024zM584.99 82.286c-43.886 0-73.143 29.257-73.143 73.143s29.257 73.143 73.143 73.143c43.886 0 73.143-29.257 73.143-73.143s-29.257-73.143-73.143-73.143v0zM511.847 301.714v292.571h146.286v-292.571h-146.286z" />
<glyph unicode="&#xe934;" glyph-name="exclamation" d="M512 960c282.304 0 512-229.632 512-512 0-282.304-229.696-512-512-512s-512 229.696-512 512c0 282.368 229.696 512 512 512v0zM512 35.136c227.648 0 412.864 185.216 412.864 412.864 0 227.712-185.28 412.864-412.864 412.864-227.648 0-412.928-185.216-412.928-412.864 0-227.712 185.216-412.864 412.928-412.864v0zM576 704h-128v-320h128v320zM576.512 320h-128v-128h128v128z" />
<glyph unicode="&#xe935;" glyph-name="timeline_exception" horiz-adv-x="1117" d="M558.49 936.716l-558.545-977.455h1117.091l-558.545 977.455zM488.672 260.211v363.985h139.636v-363.985h-139.636zM558.49 65.651c-41.891 0-69.818 27.645-69.818 69.113s27.927 69.113 69.818 69.113c41.891 0 69.818-27.645 69.818-69.113s-27.927-69.113-69.818-69.113z" />
<glyph unicode="&#xe936;" glyph-name="timeline_ePOD" horiz-adv-x="2487" d="M612.873 423.757h-119.919v17.846c0 10.775 1.012 21.539 2.977 32.303s5.235 20.556 9.78 29.338c4.528 8.771 10.617 15.877 18.278 21.264s17.414 8.064 29.338 8.064c11.908 0 21.687-2.406 29.338-7.229s13.603-11.907 17.846-21.264c4.253-9.357 7.229-20.675 8.928-34.018s2.838-28.767 3.409-46.347v0zM492.954 354.016h232.181v26.367c0 35.132-2.249 67.046-6.827 95.684s-13.040 53.010-25.507 73.138c-12.464 20.125-29.626 35.721-51.449 46.762s-49.748 16.587-83.78 16.587c-39.701 0-71.444-6.52-95.252-19.56s-42.087-30.614-54.867-52.732c-12.739-22.109-21.264-47.345-25.507-75.687s-6.374-57.834-6.374-88.455c0-28.917 1.287-57.834 3.841-86.751s9.478-54.995 20.832-78.245c11.325-23.228 28.917-41.957 52.732-56.124s56.978-21.264 99.503-21.264c56.124 0 97.24 13.878 123.318 41.656s40.251 68.323 42.518 121.619h-105.466c-3.409-28.917-9.635-50.455-18.71-64.641s-23.529-21.264-43.375-21.264c-10.775 0-19.846 2.977-27.196 8.928s-13.327 13.878-17.846 23.816c-4.528 9.91-7.789 21.264-9.78 34.018s-2.977 25.939-2.977 39.532v36.567zM912.239 475.628v184.553h51.026c30.614 0 52.446-7.939 65.484-23.816s19.56-39.118 19.56-69.741c0-31.164-7.514-54.161-22.521-68.887s-34.727-22.109-59.11-22.109h-54.436zM789.769 750.341v-607.241h122.472v242.385h65.484c28.917 0 55.283 3.684 79.105 11.050s44.085 18.428 60.804 33.168c16.707 14.742 29.75 33.718 39.118 56.978s14.035 50.455 14.035 81.648c0 22.678-2.838 44.917-8.496 66.759s-15.017 41.247-28.060 58.255c-13.040 17.010-30.182 30.758-51.449 41.247s-47.481 15.725-78.663 15.725h-214.317zM1340.878 446.713c0 40.825 1.012 75.412 2.977 103.76s5.942 51.606 11.908 69.741c5.942 18.14 14.458 31.321 25.507 39.532s25.657 12.33 43.797 12.33c18.14 0 32.739-4.116 43.797-12.33s19.56-21.382 25.507-39.532c5.942-18.14 9.91-41.381 11.908-69.741s2.977-62.935 2.977-103.76c0-40.825-1.012-75.552-2.977-104.181s-5.942-51.881-11.908-69.741c-5.942-17.846-14.458-30.889-25.507-39.118s-25.657-12.33-43.797-12.33c-18.14 0-32.739 4.116-43.797 12.33s-19.56 21.264-25.507 39.118c-5.942 17.846-9.91 41.106-11.908 69.741s-2.977 63.353-2.977 104.181v0zM1218.425 446.713c0-46.487 2.129-89.013 6.374-127.572s13.603-71.719 28.060-99.503c14.458-27.785 35.289-49.042 62.513-63.785s63.785-22.109 109.709-22.109c45.927 0 82.495 7.357 109.709 22.109s48.054 36.013 62.513 63.785c14.458 27.785 23.816 60.947 28.060 99.503s6.374 81.077 6.374 127.572c0 45.927-2.129 88.306-6.374 127.147s-13.603 72.148-28.060 99.927c-14.458 27.785-35.289 49.473-62.513 65.063s-63.785 23.385-109.709 23.385c-45.927 0-82.495-7.789-109.709-23.385s-48.054-37.278-62.513-65.063c-14.458-27.785-23.816-61.093-28.060-99.927s-6.374-81.223-6.374-127.147v0zM1832.456 233.253v426.939h51.881c23.228 0 41.812-4.392 55.706-13.171s24.367-21.814 31.467-39.118c7.102-17.296 11.757-38.982 14.035-65.063s3.409-56.415 3.409-91.009c0-41.381-1.287-75.973-3.841-103.76s-7.632-50.18-15.292-67.191c-7.632-17.010-18.003-29.2-31.046-36.567s-30.335-11.050-51.881-11.050h-54.436zM1709.988 750.341v-607.241h193.058c40.825 0 74.555 6.217 101.209 18.71s47.913 31.467 63.785 56.978c15.877 25.507 27.076 57.96 33.596 97.378s9.78 85.754 9.78 139.051c0 44.795-2.55 85.332-7.632 121.619s-14.882 67.326-29.338 93.13c-14.458 25.782-34.727 45.624-60.804 59.542s-60.384 20.832-102.911 20.832h-200.713z" />
<glyph unicode="&#xe937;" glyph-name="timeline_dispatch" horiz-adv-x="945" d="M543.387 365.292l-41.354-35.446h118.154v106.338l-35.446-29.538c0 0-35.446 29.538-53.169 59.077s-29.538 64.985-29.538 100.431h177.231v354.462h-413.538v-354.462h177.231c0-35.446-11.815-70.892-29.538-100.431s-53.169-59.077-53.169-59.077l-35.446 29.538v-106.338h118.154l-41.354 35.446c0 0 35.446 29.538 59.077 70.892 5.908 5.908 5.908 11.815 11.815 17.723 5.908-5.908 5.908-11.815 11.815-17.723 23.631-41.354 59.077-70.892 59.077-70.892v0zM620.187 270.769h295.385v-295.385h-295.385v295.385zM29.418 270.769h295.385v-295.385h-295.385v295.385z" />
<glyph unicode="&#xe938;" glyph-name="timeline_delivery" horiz-adv-x="1303" d="M764.874 568.424v344.854h-247.545v-344.854h-123.773l247.545-287.378 247.545 287.378h-123.773zM1025.603 880.119h-149.644v-64.1h97.268l194.537-512.798h-291.805v-128.199h-448.931v128.199h-291.805l194.537 512.798h97.268v64.1h-149.644l-224.465-576.898v-320.499h1197.149v320.499l-224.465 576.898z" />
<glyph unicode="&#xe939;" glyph-name="wrongMilestone" horiz-adv-x="965" d="M754.484 18.67c-135.241 29.117-263.303 70.576-361.613 116.286-34.008 15.812-63.608 31.763-88.058 47.548 31.017 8.44 55.584 32.528 64.699 63.262 17.295-10.102 37.564-20.619 60.365-31.221 86.843-40.378 199.945-77.681 320.572-105.089-6.332-12.566-9.898-26.764-9.898-41.796 0-17.978 5.099-34.763 13.933-48.99zM275.749 365.157c17.133 10.987 38.193 21.959 64.444 34.182 10.29 4.791 21.215 9.706 35.299 15.917 5.104 2.251 29.236 12.832 35.867 15.761 106.657 47.114 149.321 78.257 146.348 101.843-5.941 47.14-125.511 127.071-389.090 230.62l32.094 81.693c295.864-116.232 432.239-207.397 444.079-301.338 10.571-83.876-48.795-127.212-197.966-193.105-6.771-2.991-30.934-13.585-35.913-15.781-13.585-5.991-24.012-10.682-33.67-15.179-4.706-2.191-9.19-4.324-13.458-6.401-15.175 30.749-46.844 51.898-83.455 51.898-1.535 0-3.062-0.037-4.579-0.111zM651.597 410.935c-75.707 0-137.005 61.298-137.005 136.923s61.298 136.923 137.005 136.923c75.625 0 136.923-61.298 136.923-136.923s-61.298-136.923-136.923-136.923zM344.081 272.257c0-35.213-28.54-63.753-63.753-63.753-35.262 0-63.808 28.534-63.808 63.753s28.546 63.753 63.808 63.753c35.213 0 63.753-28.54 63.753-63.753h58.514c0 67.529-54.738 122.267-122.267 122.267-67.574 0-122.323-54.727-122.323-122.267s54.749-122.267 122.323-122.267c67.529 0 122.267 54.738 122.267 122.267h-58.514zM833.616 3.906c-35.262 0-63.808 28.534-63.808 63.753s28.546 63.753 63.808 63.753c35.213 0 63.753-28.54 63.753-63.753s-28.54-63.753-63.753-63.753v0zM833.616-54.608c67.529 0 122.267 54.738 122.267 122.267s-54.738 122.267-122.267 122.267c-67.574 0-122.323-54.727-122.323-122.267s54.749-122.267 122.323-122.267v0zM131.445 764.592c-35.262 0-63.808 28.534-63.808 63.753s28.546 63.753 63.808 63.753c35.213 0 63.753-28.54 63.753-63.753s-28.54-63.753-63.753-63.753v0zM131.445 706.078c67.529 0 122.267 54.738 122.267 122.267s-54.738 122.267-122.267 122.267c-67.574 0-122.323-54.727-122.323-122.267s54.749-122.267 122.323-122.267v0z" />
<glyph unicode="&#xe93a;" glyph-name="specialFee" d="M695.795 769.642h288.821c14.501 0 26.256 11.755 26.256 26.256s-11.755 26.256-26.256 26.256h-288.821c-14.501 0-26.256-11.755-26.256-26.256s11.755-26.256 26.256-26.256v0zM866.462 638.36v288.821c0 14.501-11.755 26.256-26.256 26.256s-26.256-11.755-26.256-26.256v-288.821c0-14.501 11.755-26.256 26.256-26.256s26.256 11.755 26.256 26.256v0zM398.769 285.642l-51.692-54.564c20.581-20.103 43.914-36.735 70-49.897 25.846-12.684 53.008-19.265 81.487-19.744v-79.333h37.692v79.333c41.163 6.222 73.709 23.333 97.641 51.333 23.932 27.043 36.137 61.145 36.615 102.308 1.197 79.214-43.555 129.709-134.256 151.487v156.513c30.393-2.393 57.555-13.88 81.487-34.462l42.718 55.641c-36.855 32.308-78.256 48.701-124.205 49.179v51.692h-37.692v-51.692c-83.761-12.205-126.359-62.341-127.795-150.41-1.915-76.103 40.683-125.162 127.795-147.179v-164.051c-22.496 2.632-41.521 8.855-57.077 18.667-16.274 9.094-30.513 20.82-42.718 35.179v0zM498.564 475.181c-19.624 6.462-33.265 15.555-40.923 27.282-7.897 11.248-11.846 25.248-11.846 42 0 13.162 1.675 24.41 5.026 33.744 2.872 9.333 6.581 17.111 11.128 23.333 10.291 12.445 22.496 19.624 36.615 21.538v-147.897zM536.256 386.873c23.453-4.786 39.367-13.521 47.744-26.205 7.897-12.923 11.846-27.88 11.846-44.872 0-21.060-4.188-38.769-12.564-53.128-8.855-14.598-24.53-24.889-47.026-30.872v155.077zM498.872 914.052c-268.269 0-485.744-217.475-485.744-485.744s217.475-485.744 485.744-485.744c268.269 0 485.744 217.475 485.744 485.744 0 21.752-17.633 39.385-39.385 39.385s-39.385-17.633-39.385-39.385c0-224.766-182.209-406.974-406.974-406.974s-406.974 182.209-406.974 406.974c0 224.766 182.209 406.974 406.974 406.974 21.752 0 39.385 17.633 39.385 39.385s-17.633 39.385-39.385 39.385v0z" />
<glyph unicode="&#xe93b;" glyph-name="epod" horiz-adv-x="1396" d="M670.845 86.88h-57.074v8.5c0 5.127 0.472 10.254 1.417 15.382s2.496 9.782 4.655 13.965c2.159 4.183 5.060 7.556 8.703 10.119s8.298 3.845 13.965 3.845c5.667 0 10.322-1.147 13.965-3.441s6.476-5.667 8.5-10.119c2.024-4.453 3.441-9.85 4.25-16.191s1.349-13.695 1.619-22.060v0zM613.772 53.688h110.505v12.548c0 16.731-1.079 31.91-3.238 45.538s-6.207 25.231-12.143 34.811c-5.937 9.58-14.1 17.001-24.489 22.263s-23.68 7.893-39.871 7.893c-18.89 0-34.001-3.103-45.335-9.31s-20.037-14.572-26.108-25.096c-6.072-10.524-10.119-22.533-12.143-36.025s-3.036-27.525-3.036-42.097c0-13.763 0.607-27.525 1.822-41.288s4.52-26.176 9.917-37.24c5.397-11.064 13.762-19.969 25.096-26.715s27.12-10.119 47.359-10.119c26.716 0 46.28 6.611 58.693 19.834s19.16 32.517 20.239 57.883h-50.193c-1.619-13.763-4.587-24.017-8.905-30.763s-11.199-10.119-20.644-10.119c-5.127 0-9.445 1.417-12.953 4.25s-6.342 6.611-8.5 11.334c-2.159 4.722-3.71 10.119-4.655 16.191s-1.417 12.346-1.417 18.822v17.406zM813.328 111.571v87.837h24.287c14.572 0 24.961-3.778 31.168-11.334s9.31-18.62 9.31-33.192c0-14.842-3.576-25.771-10.727-32.787s-16.528-10.524-28.132-10.524h-25.906zM755.040 242.315v-289.013h58.288v115.362h31.168c13.763 0 26.311 1.754 37.645 5.262s20.981 8.77 28.942 15.786c7.961 7.016 14.167 16.056 18.62 27.12s6.679 24.017 6.679 38.859c0 10.794-1.349 21.386-4.048 31.775s-7.151 19.632-13.358 27.727c-6.207 8.096-14.37 14.64-24.489 19.632s-22.6 7.488-37.442 7.488h-102.004zM1017.337 97.809c0 19.43 0.472 35.89 1.417 49.383s2.833 24.557 5.667 33.192c2.833 8.635 6.881 14.909 12.143 18.822s12.211 5.869 20.846 5.869c8.635 0 15.584-1.956 20.846-5.869s9.31-10.187 12.143-18.822c2.833-8.635 4.722-19.699 5.667-33.192s1.417-29.954 1.417-49.383c0-19.43-0.472-35.958-1.417-49.586s-2.833-24.692-5.667-33.192c-2.833-8.5-6.881-14.707-12.143-18.62s-12.211-5.869-20.846-5.869c-8.635 0-15.584 1.956-20.846 5.869s-9.31 10.119-12.143 18.62c-2.833 8.5-4.722 19.564-5.667 33.192s-1.417 30.156-1.417 49.586v0zM959.049 97.809c0-22.128 1.012-42.367 3.036-60.717s6.476-34.136 13.358-47.359c6.881-13.223 16.798-23.342 29.751-30.358s30.358-10.524 52.217-10.524c21.858 0 39.264 3.508 52.217 10.524s22.87 17.136 29.751 30.358c6.881 13.223 11.334 29.009 13.358 47.359s3.036 38.589 3.036 60.717c0 21.858-1.012 42.030-3.036 60.515s-6.476 34.339-13.358 47.562c-6.881 13.223-16.798 23.545-29.751 30.966s-30.358 11.131-52.217 11.131c-21.858 0-39.264-3.71-52.217-11.131s-22.87-17.743-29.751-30.966c-6.881-13.223-11.334-29.077-13.358-47.562s-3.036-38.656-3.036-60.515v0zM1251.299-3.791v203.199h24.692c11.064 0 19.902-2.091 26.513-6.274s11.604-10.389 14.977-18.62c3.373-8.231 5.599-18.552 6.679-30.966s1.619-26.85 1.619-43.311c0-19.699-0.607-36.16-1.822-49.383s-3.643-23.882-7.286-31.978c-3.643-8.096-8.568-13.897-14.774-17.406s-14.437-5.262-24.692-5.262h-25.906zM1193.011 242.315v-289.013h91.885c19.43 0 35.486 2.968 48.169 8.905s22.803 14.977 30.358 27.12c7.556 12.143 12.885 27.592 15.989 46.347s4.655 40.815 4.655 66.181c0 21.318-1.214 40.613-3.643 57.883s-7.084 32.045-13.965 44.323c-6.881 12.278-16.528 21.723-28.942 28.335s-28.739 9.917-48.978 9.917h-95.528zM399.815 140.359h-271.515c-14.664 0-23.273 7.105-23.273 11.082v576.277c0 3.948 8.638 11.082 23.273 11.082h256v104.173c0 3.948 8.638 11.082 23.273 11.082h418.909c14.635 0 23.273-7.135 23.273-11.082v-104.173h256c14.635 0 23.273-7.135 23.273-11.082v-354.632c0-25.706 20.839-46.545 46.545-46.545s46.545 20.839 46.545 46.545v354.632c0 59.713-53.828 104.173-116.364 104.173h-209.455l46.545-46.545v57.628c0 59.713-53.828 104.173-116.364 104.173h-418.909c-62.536 0-116.364-44.46-116.364-104.173v-57.628l46.545 46.545h-209.455c-62.536 0-116.364-44.46-116.364-104.173v-576.277c0-59.759 53.809-104.173 116.364-104.173h271.515c25.706 0 46.545 20.839 46.545 46.545s-20.839 46.545-46.545 46.545v0zM314.482 630.194c25.693 0 46.545-20.852 46.545-46.545s-20.852-46.545-46.545-46.545c-25.693 0-46.545 20.852-46.545 46.545s20.852 46.545 46.545 46.545v0zM624.785 599.164c68.558 0 124.121-55.563 124.121-124.121 0-68.526-55.583-124.121-124.121-124.121s-124.121 55.596-124.121 124.121c0 68.558 55.563 124.121 124.121 124.121v0zM624.785 661.225c-102.833 0-186.182-83.349-186.182-186.182 0-102.797 83.365-186.182 186.182-186.182s186.182 83.384 186.182 186.182c0 102.833-83.349 186.182-186.182 186.182v0z" />
<glyph unicode="&#xe93c;" glyph-name="complain" horiz-adv-x="1079" d="M942.059 943.351h-805.111c-67.258 0-122.025-54.109-122.025-121.058v-556.811c0-67.007 54.745-121.058 122.025-121.058h53.701l-34.415 18.297 141.723-210.085 141.821 210.073-34.407-18.285h536.687c67.338 0 122.025 54.030 122.025 121.058v556.811c0 66.97-54.708 121.058-122.025 121.058v0zM942.059 860.324c21.673 0 38.998-17.129 38.998-38.031v-556.811c0-20.948-17.291-38.031-38.998-38.031h-558.749l-119.746-177.374 68.822-0.012-119.665 177.386h-75.772c-21.66 0-38.998 17.117-38.998 38.031v556.811c0 20.868 17.371 38.031 38.998 38.031h805.111zM278.397 682.252h551.582c15.285 0 27.676 12.391 27.676 27.676s-12.391 27.676-27.676 27.676h-551.582c-15.285 0-27.676-12.391-27.676-27.676s12.391-27.676 27.676-27.676v0zM278.397 536.421h551.582c15.285 0 27.676 12.391 27.676 27.676s-12.391 27.676-27.676 27.676h-551.582c-15.285 0-27.676-12.391-27.676-27.676s12.391-27.676 27.676-27.676v0zM278.397 372.36h551.582c15.285 0 27.676 12.391 27.676 27.676s-12.391 27.676-27.676 27.676h-551.582c-15.285 0-27.676-12.391-27.676-27.676s12.391-27.676 27.676-27.676v0z" />
<glyph unicode="&#xe93d;" glyph-name="special_charge" horiz-adv-x="546" d="M109.516 257.868l-76.8-81.067c30.578-29.867 65.244-54.578 104-74.133 38.4-18.845 78.755-28.622 121.067-29.333v-117.867h56v117.867c61.156 9.244 109.511 34.666 145.067 76.267 35.556 40.178 53.689 90.844 54.4 152 1.778 117.689-64.71 192.711-199.467 225.067v232.533c45.156-3.556 85.511-20.622 121.067-51.2l63.467 82.667c-54.756 48-116.266 72.356-184.533 73.067v76.8h-56v-76.8c-124.445-18.133-187.733-92.622-189.867-223.467-2.844-113.067 60.444-185.955 189.867-218.667v-243.733c-33.422 3.911-61.689 13.155-84.8 27.733-24.178 13.511-45.333 30.933-63.467 52.267v0zM257.783 539.468c-29.156 9.6-49.422 23.111-60.8 40.533-11.733 16.711-17.6 37.511-17.6 62.4 0 19.556 2.489 36.267 7.467 50.133 4.267 13.867 9.778 25.422 16.533 34.667 15.289 18.489 33.422 29.156 54.4 32v-219.733zM313.783 408.268c34.845-7.111 58.489-20.089 70.933-38.933 11.733-19.2 17.6-41.422 17.6-66.667 0-31.289-6.222-57.6-18.667-78.933-13.156-21.689-36.444-36.978-69.867-45.867v230.4z" />
<glyph unicode="&#xe93e;" glyph-name="timeline_release" horiz-adv-x="853" d="M330.498 582.4l-172.8-172.8-134.4 134.4 403.2 403.2 403.2-403.2-134.4-134.4-172.8 172.8v-633.6h-192v633.6z" />
<glyph unicode="&#xe93f;" d="M961.344 464.797c0 250.87-206.038 454.249-460.178 454.249s-460.178-203.378-460.178-454.249c0-250.815 206.038-454.193 460.178-454.193s460.178 203.378 460.178 454.193z" />
<glyph unicode="&#xe940;" d="M501.166-30.357c276.636 0 501.138 221.589 501.138 495.153 0 273.61-224.493 495.209-501.138 495.209s-501.138-221.599-501.138-495.209c0-273.564 224.503-495.153 501.138-495.153v0zM501.166 51.563c-231.63 0-419.218 185.154-419.218 413.233 0 228.127 187.58 413.289 419.218 413.289s419.218-185.162 419.218-413.289c0-228.080-187.588-413.233-419.218-413.233v0z" />
<glyph unicode="&#xe941;" glyph-name="Play" horiz-adv-x="796" d="M796.444 462.222l-796.444 497.778v-995.556z" />
<glyph unicode="&#xe942;" glyph-name="truckonmap2" horiz-adv-x="1376" d="M512 96h256.096c35.265 0 63.904 28.759 63.904 64.235v671.814c0 70.592-57.387 127.951-128.177 127.951h-575.647c-70.99 0-128.177-57.286-128.177-127.951v-671.814c0-35.488 28.611-64.235 63.904-64.235h128.096c0-88.366 71.634-160 160-160s160 71.634 160 160zM1024 608h149.333c18.391 0 74.667-80.812 74.667-96v-128h-224v224zM1308.799 128h34.961c17.874 0 32.239 14.421 32.239 32.21v335.396c0 67.454-139.455 240.395-193.062 240.395h-254.987c-17.715 0-31.951-14.252-31.951-31.833v-544.335c0-17.403 14.434-31.833 32.239-31.833h66.961c-2.099-10.34-3.201-21.041-3.201-32 0-88.366 71.634-160 160-160s160 71.634 160 160c0 10.959-1.102 21.66-3.201 32zM448 96c0-53.019-42.981-96-96-96s-96 42.981-96 96c0 53.019 42.981 96 96 96s96-42.981 96-96zM1248 96c0-53.019-42.981-96-96-96s-96 42.981-96 96c0 53.019 42.981 96 96 96s96-42.981 96-96zM1024 608h149.333c18.391 0 74.667-80.812 74.667-96v-128h-224v224z" />
<glyph unicode="&#xe943;" d="M1024 448c0-282.775-229.225-512-512-512s-512 229.225-512 512c0 282.775 229.225 512 512 512s512-229.225 512-512z" />
<glyph unicode="&#xe944;" d="M803.232 366.080l-99.765 67.403-59.768-0.030 1.777-1.31 99.87-79.044h-124.145v-71.951h-218.398v71.951h-121.419l99.042 78.381-0.497 0.663h-57.976l-110.532-74.15c0 0-12.137-10.782-6.746-48.535l17.528-83.576c0 0 4.051-29.666 52.585-28.627l475.964 0.346c0 0 51.14-4.081 56.546 43.098l12.122 82.236c-0.015 0.015 8.087 22.935-16.188 43.144z" />
<glyph unicode="&#xe945;" d="M631.683 578.974l-77.508 0.060v-191.398h-84.36v191.458l-78.2 0.060 119.627 119.627 120.44-119.808z" />
<glyph unicode="&#xe946;" glyph-name="Pause" horiz-adv-x="878" d="M0 960h329.143v-987.429h-329.143v987.429zM548.571 960h329.143v-987.429h-329.143v987.429z" />
<glyph unicode="&#xe947;" horiz-adv-x="1311" d="M317.438 99.84l-235.518 409.605 235.518 409.595h471.045l235.518-409.595-235.518-409.605h-471.045z" />
<glyph unicode="&#xe948;" horiz-adv-x="1311" d="M352.946 120.257l-235.518 409.605v-40.834l235.518 409.595-35.508-20.543h471.045l-35.508 20.543 235.518-409.595v40.834l-235.518-409.605 35.509 20.543h-471.045l35.509-20.543zM281.929 79.423l11.812-20.543h518.438l259.069 450.565-259.070 450.555h-518.437l-259.070-450.555 247.257-430.022z" />
<glyph unicode="&#xe949;" horiz-adv-x="1311" d="M504.658 388.599v-83.959h85.595v83.959h-85.595zM587.527 589.229v104.676h-80.688v-104.676l20.717-167.919h38.708l21.262 167.919z" />
<glyph unicode="&#xe94a;" horiz-adv-x="1311" d="M522.238-23.040l-235.518 409.605 235.518 409.595h471.045l235.518-409.595-235.518-409.605h-471.045z" />
<glyph unicode="&#xe94b;" horiz-adv-x="1311" d="M557.746-2.623l-235.518 409.605v-40.834l235.518 409.595-35.508-20.543h471.045l-35.508 20.543 235.518-409.595v40.834l-235.518-409.605 35.509 20.543h-471.045l35.509-20.543zM486.729-43.457l11.812-20.543h518.438l259.069 450.565-259.070 450.555h-518.437l-259.070-450.555 247.257-430.022z" />
<glyph unicode="&#xe94c;" horiz-adv-x="1311" d="M709.458 265.719v-83.959h85.595v83.959h-85.595zM792.327 466.349v104.676h-80.688v-104.676l20.717-167.919h38.708l21.262 167.919z" />
<glyph unicode="&#xe94d;" d="M1024 448c0-282.775-229.225-512-512-512s-512 229.225-512 512c0 282.775 229.225 512 512 512s512-229.225 512-512z" />
<glyph unicode="&#xe94e;" d="M512 608.586l-301.839-91.543v-279.085h137.201v260.683h329.276v-260.683h137.201v279.085l-301.839 91.543z" />
<glyph unicode="&#xe94f;" d="M820.706 563.069l-307.908 94.976-309.504-95.473v-26.082l309.504 95.383 307.908-94.886v26.082z" />
<glyph unicode="&#xe950;" d="M501.166 10.603c254.14 0 460.178 203.378 460.178 454.193 0 250.87-206.038 454.249-460.178 454.249s-460.234-203.378-460.234-454.249c0-250.815 206.094-454.193 460.234-454.193z" />
<glyph unicode="&#xe951;" d="M501.166-30.357c276.636 0 501.138 221.589 501.138 495.153 0 273.61-224.493 495.209-501.138 495.209-276.654 0-501.194-221.608-501.194-495.209 0-273.555 224.549-495.153 501.194-495.153v0zM501.166 51.563c-231.642 0-419.274 185.166-419.274 413.233 0 228.115 187.623 413.289 419.274 413.289 231.638 0 419.218-185.162 419.218-413.289 0-228.080-187.588-413.233-419.218-413.233v0z" />
<glyph unicode="&#xe952;" d="M1024 448c0-282.775-229.225-512-512-512s-512 229.225-512 512c0 282.775 229.225 512 512 512s512-229.225 512-512z" />
<glyph unicode="&#xe953;" d="M803.232 366.080l-99.765 67.403-59.768-0.030 1.777-1.31 99.87-79.044h-124.145v-71.951h-218.398v71.951h-121.419l99.042 78.381-0.497 0.663h-57.976l-110.532-74.15c0 0-12.137-10.782-6.746-48.535l17.528-83.576c0 0 4.051-29.666 52.585-28.627l475.964 0.346c0 0 51.14-4.081 56.546 43.098l12.122 82.236c-0.015 0.015 8.087 22.935-16.188 43.144z" />
<glyph unicode="&#xe954;" d="M391.618 507.439l77.508-0.060v191.398h84.36v-191.458l78.2-0.060-119.627-119.627-120.44 119.808z" />
<glyph unicode="&#xe955;" horiz-adv-x="1257" d="M360.725-17.455l-267.634 465.46 267.634 465.449h535.278l267.634-465.449-267.634-465.46h-535.278z" />
<glyph unicode="&#xe956;" horiz-adv-x="1257" d="M401.075 5.747l-267.634 465.46v-46.403l267.634 465.449-40.351-23.344h535.278l-40.351 23.344 267.634-465.449v46.403l-267.634-465.46 40.351 23.344h-535.278l40.351-23.344zM320.374-40.656l13.423-23.344h589.134l294.397 512.005-294.397 511.995h-589.133l-294.397-511.995 280.974-488.661z" />
<glyph unicode="&#xe957;" horiz-adv-x="1257" d="M729.756 471.345l-79.246-79.246-125.868 125.868-30.304-30.304 156.172-156.172 30.304 30.304 81.579 79.246-32.637 30.304z" />
<glyph unicode="&#xe958;" horiz-adv-x="1257" d="M861.452 381.607c-9.319-44.289-30.304-86.245-62.941-118.882-44.275-44.275-102.55-67.593-163.157-67.593-62.927 0-121.201 23.318-165.491 67.593-90.911 90.911-90.911 237.764 0 328.662 44.289 44.289 102.564 67.593 163.157 67.593 58.274 0 116.549-23.304 158.505-62.927l9.319-9.333-62.927-62.927 158.505-9.333-9.333 158.505-51.275-51.275-9.319 6.986c-53.622 51.289-121.215 79.259-195.794 79.259-37.303 0-72.26-6.999-104.897-20.985-34.956-13.985-65.26-34.956-93.231-60.608-27.971-27.971-46.622-58.261-62.941-93.231-13.985-32.637-20.971-69.927-20.971-107.216 0-37.303 6.986-72.26 20.971-107.23 13.985-34.956 34.97-67.593 62.941-93.231 27.971-27.971 58.274-48.942 93.231-62.927 34.97-13.985 69.927-20.985 107.216-20.985 37.303 0 72.26 6.999 104.897 20.985 34.956 13.985 65.26 34.956 93.231 62.927 23.318 23.304 41.956 48.955 53.608 76.926 11.666 23.304 18.652 48.942 23.318 74.579l-46.622 4.666z" />
<glyph unicode="&#xe959;" glyph-name="emphasize" horiz-adv-x="236" d="M215.829 128.981h-195.663v-187.156h195.663v187.156zM47.106 223.976h141.785l26.939 401.25v328.94h-195.663v-328.94l26.939-401.25z" />
<glyph unicode="&#xe95a;" glyph-name="file" horiz-adv-x="793" d="M49.658 899.539v0-910.44c0 9.014-7.522 16.498-16.493 16.498h726.664c-9.11 0-16.493-7.392-16.493-16.468v679.635c0 6.098-4.903 19.040-8.056 22.452l36.394 33.624-4.124-49.376-144.256 12.048 4.124 49.376 2.558-49.482c-49.079-2.537-86.713 38.415-79.483 87.387l49.017-7.236-49.426-3.477-10.495 149.191 49.426 3.477-34.276-35.78c1.027-0.984-13.131 2.074-25.88 2.074h-495.68c9.052 0 16.479 7.438 16.479 16.498v0zM0.11 899.539c0 18.253 14.705 33.051 33.069 33.051h495.68c18.114 0 47.2-3.431 60.156-15.842l10.495-149.191c-2.661-18.028 10.078-31.59 27.909-30.668l144.256-12.048c11.714-12.679 21.21-37.654 21.21-56.076v-679.635c0-18.27-14.781-33.081-33.055-33.081h-726.664c-18.256 0-33.055 14.562-33.055 33.051v910.44zM566.496 904.913l194.105-194.105 23.357 23.357-205.784 205.784-23.357-23.357 11.679-11.679zM185.547 503.688h458.313v33.032h-458.313v-33.032zM185.547 668.85h242.95v33.032h-242.95v-33.032zM185.547 338.527h458.313v33.032h-458.313v-33.032zM185.547 173.366h458.313v33.032h-458.313v-33.032z" />
<glyph unicode="&#xe95b;" glyph-name="uploadFiles" horiz-adv-x="751" d="M500.647 948.627v-250.311h250.311l-250.311 250.311zM438.069 948.627h-438.044v-1001.244h750.933v688.356h-312.889v312.889zM625.803 197.694h-500.622v62.578h500.622v-62.578zM625.803 322.849h-500.622v62.578h500.622v-62.578zM625.803 510.583v-62.578h-500.622v62.578h500.622z" />
<glyph unicode="&#xe95c;" glyph-name="location" horiz-adv-x="1084" d="M133.501-19.375h-120.471v772.993l263.56 86.070 37.398-114.519-222.024-72.506 41.536 57.259v-729.299zM792.907 679.757l227.953 38.876-70.362 59.378v-710.083l50.73 59.481-324.305-51.823 24.149-1.053-317.248 79.515-331.6-79.362 28.040-117.162 317.249 75.927-28.665 0.153 314.902-78.927 387.218 61.877v832.834l-298.315-50.875 20.253-118.756zM535.873 189.583c-64.15 0-269.854 337.114-269.854 484.632s120.818 267.104 269.854 267.104c149.036 0 269.854-119.587 269.854-267.104s-205.705-484.632-269.854-484.632zM535.873 548.518c70.135 0 126.99 56.276 126.99 125.696s-56.855 125.696-126.99 125.696c-70.135 0-126.99-56.276-126.99-125.696s56.855-125.696 126.99-125.696z" />
<glyph unicode="&#xe95d;" glyph-name="pickupanddelivery" d="M341.333 448v128h-341.333l512 384 512-384h-341.333v-256h341.333l-512-384-512 384h341.333v128z" />
<glyph unicode="&#xe95e;" glyph-name="pickup" d="M512-64l512 512h-341.333v512h-341.333v-512h-341.333l512-512z" />
<glyph unicode="&#xe95f;" glyph-name="delivery" d="M1024 448l-512 512-512-512h341.333v-512h341.333v512h341.333z" />
<glyph unicode="&#xe960;" glyph-name="info" d="M512 960c-281.6 0-512-230.4-512-512s230.4-512 512-512c281.6 0 512 230.4 512 512s-230.4 512-512 512v0zM576 128h-128v448h128v-448zM576 640h-128v128h128v-128z" />
<glyph unicode="&#xe961;" glyph-name="timeline-billing" horiz-adv-x="512" d="M97.588 263.76l-74.417-78.551c29.629-28.94 63.22-52.884 100.773-71.833 37.209-18.26 76.312-27.734 117.31-28.423v-114.209h54.262v114.209c59.258 8.958 106.113 33.591 140.565 73.9 34.452 38.931 52.023 88.025 52.712 147.283 1.723 114.038-62.702 186.731-193.277 218.083v225.318c43.755-3.445 82.858-19.982 117.31-49.611l61.497 80.102c-53.057 46.511-112.659 70.11-178.807 70.799v74.417h-54.262v-74.417c-120.584-17.571-181.908-89.748-183.975-216.532-2.756-109.559 58.568-180.185 183.975-211.881v-236.17c-32.385 3.79-59.775 12.747-82.169 26.873-23.428 13.092-43.927 29.973-61.497 50.645v0zM241.254 536.621c-28.251 9.302-47.889 22.394-58.913 39.276-11.369 16.193-17.054 36.347-17.054 60.464 0 18.949 2.412 35.141 7.235 48.578 4.134 13.436 9.474 24.633 16.020 33.591 14.815 17.915 32.385 28.251 52.712 31.007v-212.915zM295.516 409.493c33.763-6.89 56.674-19.465 68.732-37.725 11.369-18.604 17.054-40.137 17.054-64.598 0-30.318-6.029-55.813-18.087-76.484-12.747-21.016-35.313-35.83-67.699-44.443v223.251z" />
<glyph unicode="&#xe962;" glyph-name="timeline-created" d="M1014.221 563.903h-386.327v386.327h-231.796v-386.327h-386.327v-231.796h386.327v-386.327h231.796v386.327h386.327v231.796z" />
<glyph unicode="&#xe963;" glyph-name="timeline-pickup" horiz-adv-x="1331" d="M552.823 625.463v-379.339h272.3v379.339h136.15l-272.3 316.116-272.3-316.116h136.15zM1077.025 941.579h-164.608v-70.51h106.995l213.99-564.078h-320.986v-141.019h-493.824v141.019h-320.986l213.99 564.078h106.995v70.51h-164.608l-246.912-634.587v-352.549h1316.864v352.549l-246.912 634.587z" />
<glyph unicode="&#xe964;" glyph-name="view" horiz-adv-x="1638" d="M819.001 919.043v0c686.080 0 819.2-532.48 819.2-532.48s-245.76-409.6-829.44-409.6c-583.68 0-808.96 419.84-808.96 419.84s133.12 522.24 819.2 522.24zM819.001 64.003c212.077 0 384 171.923 384 384s-171.923 384-384 384c-212.077 0-384-171.923-384-384s171.923-384 384-384zM819.001 232.232c129.266 0 234.057 104.791 234.057 234.057s-104.791 234.057-234.057 234.057c-129.266 0-234.057-104.791-234.057-234.057s104.791-234.057 234.057-234.057z" />
<glyph unicode="&#xe965;" glyph-name="reject" d="M512 960c-281.6 0-512-230.4-512-512s230.4-512 512-512c281.6 0 512 230.4 512 512s-230.4 512-512 512v0zM780.8 268.8l-89.6-89.6-179.2 179.2-179.2-179.2-89.6 89.6 179.2 179.2-179.2 179.2 89.6 89.6 179.2-179.2 179.2 179.2 89.6-89.6-179.2-179.2 179.2-179.2z" />
<glyph unicode="&#xe966;" glyph-name="recall" d="M512 960c-192 0-358.4-102.4-441.6-262.4l-70.4 70.4v-256h256l-96 96c64 128 198.4 224 352 224 211.2 0 384-172.8 384-384s-172.8-384-384-384c-115.2 0-217.6 51.2-288 134.4l-96-83.2c89.6-108.8 230.4-179.2 384-179.2 281.6 0 512 230.4 512 512s-230.4 512-512 512v0z" />
<glyph unicode="&#xe967;" glyph-name="downloadAll" d="M0 64h1024v-128h-1024v128zM512 128l320 320h-192v512h-256v-512h-192l320-320z" />
<glyph unicode="&#xe968;" glyph-name="otmslogo" horiz-adv-x="2705" d="M352.475 408.651c-16.467-49.042-62.156-84.632-116.593-84.632-68.185 0-123.525 55.496-123.525 123.991s55.34 123.977 123.525 123.977c54.436 0 100.125-35.573 116.593-84.615h118.696v140.421c0 31.137-25.141 56.37-56.161 56.37h-358.259c-31.017 0-56.158-25.233-56.158-56.37v-359.584c0-31.13 25.141-56.347 56.158-56.347h358.259c31.020 0 56.161 25.216 56.161 56.347v140.441h-118.696zM964.037 959.67h-358.255c-31.020 0-56.161-25.233-56.161-56.363v-359.567c0-0.253 0.073-0.447 0.073-0.64l125.017 125.478c-8.272 16.604-13.323 35.11-13.323 54.942 0 68.495 55.277 123.977 123.522 123.977 68.225 0 123.522-55.483 123.522-123.977 0-68.475-55.297-123.971-123.522-123.971-19.761 0-38.202 5.070-54.745 13.372l-125.014-125.475c0.193 0 0.379-0.073 0.631-0.073h358.255c31.020 0 56.158 25.23 56.158 56.367v359.567c0 31.13-25.138 56.363-56.158 56.363zM1622.878 649.171h257.003v-49.986h-98.995v-352.786h-58.933v352.786h-99.075zM1982.969 603.781c0.728 7.685 2.376 14.643 4.829 20.984 2.486 6.287 6.208 11.571 11.183 15.78 4.596 4.206 9.535 7.475 14.859 9.763 5.361 2.325 10.917 3.652 16.62 4.016h2.875c4.938-0.364 9.801-1.614 14.589-3.709 4.746-2.115 9.455-5.073 14.015-8.936 4.596-3.806 8.501-8.609 11.755-14.356 3.217-5.747 6.015-12.438 8.272-20.12l81.302-270.589 76.673 267.167c1.954 7.685 4.44 14.643 7.464 20.984 3.067 6.287 6.853 11.377 11.449 15.183 4.596 4.266 9.156 7.612 13.709 10.093 4.596 2.478 9.425 3.919 14.324 4.283h0.887c0 0 0.459 0.19 0.874 0.594h3.446c5.673 0 11.11-0.957 16.314-2.882 5.131-1.921 9.96-4.96 14.556-9.166 4.596-3.866 8.272-8.342 11.183-13.509 2.828-5.19 4.477-11.014 4.862-17.548l45.227-365.411h-58.979l-36.028 330.375-89.886-303.314c-1.143-5.38-2.868-10.070-5.131-14.109-2.333-4.033-5.204-7.185-8.651-9.496-3.41-2.265-6.856-3.996-10.262-5.15-3.446-1.147-7.049-1.915-10.881-2.301h-2.293c-3.832 0-7.511 0.497-11.186 1.461-3.599 0.924-7.119 2.191-10.565 3.726-3.453 2.265-6.208 5.040-8.272 8.302-2.147 3.265-3.759 7.185-4.902 11.761l-95.054 309.121-36.002-330.375h-58.434l45.26 357.379zM2587.626 296.411c8.77-0.73 16.776-0.27 24.008 1.461 7.278 1.684 13.559 4.263 18.923 7.722 5.361 3.459 9.727 8.072 13.134 13.796 3.483 5.73 5.706 12.648 6.929 20.72 0 6.878-1.223 13.379-3.446 19.506-2.3 6.111-5.746 12.051-10.342 17.798-4.553 5.744-10.262 11.104-17.155 16.097-6.889 4.963-14.702 9.766-23.473 14.363-1.532 0.75-3.024 1.534-4.56 2.285-1.532 0.791-3.061 1.538-4.596 2.325-1.532 0.75-3.061 1.501-4.59 2.288-1.502 0.767-3.031 1.518-4.56 2.308h-0.804c-0.728 0-0.994 0.073-1.223 0.287-0.156 0.193-0.233 0.46-0.233 0.864-16.082 7.628-31.402 15.7-46.108 24.119-14.709 8.419-28.724 17.238-42.127 26.407-12.944 9.223-22.745 19.93-29.415 32.208-6.733 12.241-10.033 26-10.033 41.357v6.304c0 14.566 1.991 27.384 6.015 38.495 4.018 11.087 10.226 20.29 18.574 27.575 8.428 7.648 17.198 13.972 26.347 18.969 9.156 4.977 18.877 8.629 29.182 10.917 1.532 0.347 3.061 0.67 4.6 0.864 1.492 0.193 3.021 0.464 4.55 0.864 0.804 0 1.532 0.077 2.34 0.267 0.728 0.197 1.685 0.484 2.831 0.867 0.771 0 1.499 0.077 2.3 0.29 0.768 0.19 1.529 0.307 2.296 0.307l139.63 1.131v-49.983h-130.511c-7.969-0.787-15.171-2.308-21.449-4.593-6.281-2.288-11.718-5.747-16.314-10.36-4.596-4.59-8.042-9.356-10.299-14.356-2.267-4.96-3.795-10.163-4.56-15.51 0-0.364-0.229-0.747-0.572-1.151v-4.593c0-3.422 0.266-6.688 0.801-9.76 0.611-3.079 1.688-6.154 3.217-9.169 1.529-2.732 3.37-5.21 5.703-7.475 2.263-2.325 4.752-4.229 7.471-5.747 8.734-6.154 17.235-11.704 25.427-16.701 8.199-4.957 15.935-9.359 23.207-13.182 7.624-3.866 14.859-7.555 21.758-11.224 6.853-3.652 13.709-7.151 20.561-10.63 1.954-1.134 3.712-2.191 5.474-3.132 1.685-1.001 3.297-1.865 4.825-2.615 0.768-0.384 1.688-0.864 2.609-1.401 0.914-0.594 1.987-1.077 3.141-1.461 0.764-0.791 1.605-1.344 2.599-1.728 0.921-0.367 1.768-0.75 2.569-1.154 1.143-0.73 2.333-1.614 3.712-2.595 1.383-0.944 2.755-1.808 4.294-2.555 1.143-0.787 2.449-1.651 3.978-2.595 1.532-0.944 3.061-1.808 4.6-2.595 6.889-4.576 13.476-9.956 19.761-16.064 6.281-6.134 12.29-13.032 17.999-20.697 5.739-7.672 10.106-16.301 13.174-25.87 3.061-9.55 4.59-19.91 4.59-31.020 0-2.692-0.073-5.53-0.266-8.609-0.193-3.072-0.499-6.151-0.877-9.219-0.386-3.005-0.764-6.231-1.15-9.459-0.389-3.225-0.921-6.381-1.688-9.456-2.293-8.415-5.746-16.487-10.336-24.136-4.56-7.692-10.492-14.95-17.77-21.831-7.205-6.921-16.62-11.991-28.265-15.227-11.642-3.302-25.729-4.917-42.127-4.917h-158.546v50.009h144.266zM1420.371 297.596c-49.518 0-89.65 40.283-89.65 89.959 0 49.722 40.133 89.985 89.65 89.985 49.534 0 89.65-40.263 89.65-89.985 0-49.676-40.116-89.959-89.65-89.959zM1420.371 534.020c-80.578 0-145.908-65.573-145.908-146.465 0-80.889 65.33-146.455 145.908-146.455 80.591 0 145.924 65.566 145.924 146.455 0 80.893-65.333 146.465-145.924 146.465zM964.037 408.651h-358.255c-0.253 0-0.439-0.073-0.631-0.073l125.014-125.455c16.544 8.295 34.985 13.372 54.745 13.372 68.225 0 123.522-55.496 123.522-123.991s-55.297-124.001-123.522-124.001c-68.245 0-123.522 55.506-123.522 124.001 0 19.833 5.051 38.362 13.323 54.959l-125.017 125.458c0-0.193-0.073-0.387-0.073-0.617v-359.601c0-31.14 25.141-56.357 56.161-56.357h358.255c31.020 0 56.158 25.216 56.158 56.357v359.601c0 31.134-25.138 56.347-56.158 56.347z" />
<glyph unicode="&#xe969;" glyph-name="weibo" d="M512-64c-282.765 0-512 229.235-512 512s229.235 512 512 512c282.765 0 512-229.235 512-512s-229.235-512-512-512zM460.8 181.76c175.309 0 316.070 91.686 316.070 204.8 0 95.552-119.667 95.552-119.667 101.722s59.597 61.683 0 96.218c-59.571 34.547-168.576-17.971-165.299-12.339 46.886 80.64-20.122 106.099-54.272 106.099-81.421 0-294.272-178.586-294.272-291.699s142.131-204.8 317.44-204.8zM469.094 244.493c-112-15.744-211.11 30.515-221.35 103.322-10.214 72.806 72.282 144.589 184.282 160.333s211.11-30.515 221.35-103.322c10.214-72.806-72.282-144.589-184.282-160.333zM448.384 264.333c66.624 12.941 111.872 68.442 101.094 123.955-10.79 55.514-73.549 90.022-140.16 77.082-66.624-12.954-111.885-68.454-101.094-123.968s73.549-90.022 140.16-77.069zM450.56 366.080c-11.302 0-20.48 9.165-20.48 20.48s9.178 20.48 20.48 20.48c11.302 0 20.48-9.165 20.48-20.48s-9.178-20.48-20.48-20.48zM403.328 319.36c-20.493-9.562-42.918-4.838-50.086 10.534s3.622 35.597 24.128 45.146c20.493 9.562 42.944 4.851 50.112-10.522 7.168-15.386-3.648-35.597-24.154-45.158zM734.925 633.843c-37.005 33.306-79.744 21.645-79.744 21.645-11.213-1.485-20.301-11.878-20.301-23.040v5.709c0-11.238 9.011-19.75 20.352-19.661 0 0 35.29 5.478 55.040-17.958 19.712-23.437 5.645-55.642 5.645-55.642-3.136-10.829 3.507-19.61 14.912-19.61h2.035c11.354 0 22.336 8.947 23.936 20.173 0 0 15.13 55.078-21.875 88.384zM804.006 700.467c-67.853 64.141-158.95 54.95-158.95 54.95-16.934-0.128-30.656-14.029-30.656-30.784v6.4c0-16.883 13.926-29.888 30.579-29.901 0 0 87.488 10.099 128.205-48.333 40.691-58.432 23.974-123.021 23.974-123.021-2.355-16.781 9.446-30.4 26.381-30.4h-6.976c16.909 0 32.512 13.581 34.048 30.349 0 0 21.248 106.586-46.605 170.739z" />
<glyph unicode="&#xe96a;" glyph-name="wechat" d="M462.473 310.513c-13.823-2.189-28.082-3.328-42.635-3.328-29.068 0-56.868 4.544-82.57 12.864-12.928 4.173-60.158-45.272-71.882-39.281-6.989 3.571 21.093 62.027 14.591 66.173-58.033 37.068-95.65 96.623-95.65 163.77 0 112.406 105.442 203.525 235.511 203.525 122.645 0 223.377-81.021 234.487-184.492 103.177-4.045 185.337-75.427 185.337-162.9 0-54.334-31.679-102.447-80.419-132.091-9.178-5.581 19.877-52.644 9.574-56.83-6.323-2.586-51.684 37.26-58.404 35.25-20.415-6.093-42.392-9.408-65.303-9.408-83.824 0-155.284 44.44-182.636 106.748zM451.695 349.014c-10.355-1.434-21.004-2.176-31.858-2.176-27.161 0-53.028 4.672-76.515 13.106-2.33 0.832-10.688 3.354-15.193 0-10.163-7.565-23.794-23.244-23.794-23.244s4.992 11.418 6.669 28.095c0.768 7.629-10.867 12.966-13.183 14.54-44.235 29.913-72.535 79.344-72.535 130.722 0 90.147 87.101 163.22 194.553 163.22 100.322 0 182.918-63.716 193.427-145.53-92.297-12.749-162.708-79.933-162.708-160.903 0-6.029 0.384-11.981 1.139-17.829zM511.994-63.975c282.754 0 511.98 229.213 511.98 511.98 0 282.754-229.226 511.98-511.98 511.98s-511.98-229.226-511.98-511.98c0-282.767 229.226-511.98 511.98-511.98zM337.921 550.401c16.959 0 30.719 13.746 30.719 30.719 0 16.959-13.759 30.719-30.719 30.719s-30.719-13.759-30.719-30.719c0-16.972 13.759-30.719 30.719-30.719zM501.754 550.401c16.959 0 30.719 13.746 30.719 30.719 0 16.959-13.759 30.719-30.719 30.719s-30.719-13.759-30.719-30.719c0-16.972 13.759-30.719 30.719-30.719zM573.432 407.047c11.302 0 20.479 9.165 20.479 20.479 0 11.302-9.178 20.479-20.479 20.479s-20.479-9.178-20.479-20.479c0-11.315 9.178-20.479 20.479-20.479zM696.307 407.047c11.302 0 20.479 9.165 20.479 20.479 0 11.302-9.178 20.479-20.479 20.479s-20.479-9.178-20.479-20.479c0-11.315 9.178-20.479 20.479-20.479z" />
<glyph unicode="&#xe96b;" glyph-name="linkedin" d="M512-64v0c-282.765 0-512 229.235-512 512s229.235 512 512 512c282.765 0 512-229.235 512-512s-229.235-512-512-512zM365.709 587.418h-115.955v-385.178h115.955v385.178zM307.738 755.2c-37.376 0-61.798-25.997-61.030-60.646-0.768-33.088 23.654-59.866 60.262-59.866 38.144 0 62.554 26.778 62.554 59.866-0.755 34.65-24.41 60.646-61.786 60.646v0zM458.778 202.24h115.93v222.131c0 11.021 1.523 22.835 4.57 29.926 7.642 22.054 26.701 44.902 58.739 44.902 41.958 0 58.739-33.869 58.739-83.494v-213.466h115.93v228.429c0 113.434-57.203 165.414-133.466 165.414-61.786 0-99.942-37.018-115.2-61.44h-2.278l-5.338 52.774h-100.685c1.523-33.869 3.059-74.829 3.059-122.88v-262.298z" />
<glyph unicode="&#xe96c;" glyph-name="filter" d="M0 960l447.585-508.697v-460.798l128.828 64.412v396.387l447.587 508.697z" />
<glyph unicode="&#xe96d;" glyph-name="operation-error" d="M512 960c282.304 0 512-229.632 512-512 0-282.304-229.696-512-512-512s-512 229.696-512 512c0 282.368 229.696 512 512 512v0zM512 35.136c227.648 0 412.864 185.216 412.864 412.864 0 227.712-185.28 412.864-412.864 412.864-227.648 0-412.928-185.216-412.928-412.864 0-227.712 185.216-412.864 412.928-412.864v0zM418.29 448l-158.392 158.392c-24.994 24.994-24.994 65.516 0 90.51s65.516 24.994 90.51 0l158.392-158.392 158.392 158.392c24.994 24.994 65.516 24.994 90.51 0s24.994-65.516 0-90.51l-158.392-158.392 158.392-158.392c24.994-24.994 24.994-65.516 0-90.51s-65.516-24.994-90.51 0l-158.392 158.392-158.392-158.392c-24.994-24.994-65.516-24.994-90.51 0s-24.994 65.516 0 90.51l158.392 158.392z" />
<glyph unicode="&#xe96e;" glyph-name="compensation" horiz-adv-x="832" d="M113.856 860.444h319.533v-225.998c0-54.94 44.579-99.335 99.65-99.335h192.295v-485.076c0-8.119-6.328-14.48-14.324-14.48h-597.129c-8.011 0-14.324 6.292-14.324 14.272v796.345c0 7.838 6.443 14.272 14.3 14.272zM14.222 49.827c0-55.172 44.582-99.605 99.658-99.605h597.129c55.225 0 99.658 44.666 99.658 99.813v570.409h-277.628c-8.021 0-14.316 6.269-14.316 14.002v311.331h-404.866c-54.956 0-99.634-44.609-99.634-99.605v-796.345zM729.389 573.347l81.113 44.932-292.031 327.163-69.332-58.373zM333.21 420.056c-3.118 0-3.118 3.208-6.236 3.208v99.458c37.415-3.208 68.595-19.25 68.595-19.25l28.062 57.75c-3.118 0-46.769 25.667-96.656 25.667v51.333h-31.179v-51.333c-24.944-6.417-43.651-16.042-62.359-28.875-18.708-19.25-31.179-44.917-31.179-73.792 0-22.458 6.236-73.792 93.538-115.5v-125.125c-28.062 6.417-62.359 22.458-74.831 28.875l-31.179-54.542c6.236-3.208 56.123-32.083 106.010-38.5v-54.542h31.179v54.542c71.713 9.625 112.246 67.375 112.246 121.917 0 48.125-31.179 86.625-106.010 118.708v0zM295.795 439.306c-24.944 16.042-31.179 32.083-31.179 41.708 0 12.833 3.118 22.458 12.472 28.875 6.236 3.208 12.472 6.417 18.708 9.625v-80.208zM326.974 243.597v109.083c34.297-16.042 49.887-35.292 49.887-51.333 0-19.25-9.354-51.333-49.887-57.75v0z" />
<glyph unicode="&#xe96f;" glyph-name="discrepancy" d="M187.733 611.714v0c47.128 0 85.333 38.205 85.333 85.333s-38.205 85.333-85.333 85.333c-47.128 0-85.333-38.205-85.333-85.333s38.205-85.333 85.333-85.333v0zM187.733 509.314v0c-103.682 0-187.733 84.051-187.733 187.733s84.051 187.733 187.733 187.733c103.682 0 187.733-84.051 187.733-187.733s-84.051-187.733-187.733-187.733v0zM187.733 39.636v0c47.128 0 85.333 38.205 85.333 85.333s-38.205 85.333-85.333 85.333c-47.128 0-85.333-38.205-85.333-85.333s38.205-85.333 85.333-85.333v0zM187.733-62.764v0c-103.682 0-187.733 84.051-187.733 187.733s84.051 187.733 187.733 187.733c103.682 0 187.733-84.051 187.733-187.733s-84.051-187.733-187.733-187.733v0zM771.407 39.636v0c47.128 0 85.333 38.205 85.333 85.333s-38.205 85.333-85.333 85.333c-47.128 0-85.333-38.205-85.333-85.333s38.205-85.333 85.333-85.333v0zM771.407-62.764v0c-103.682 0-187.733 84.051-187.733 187.733s84.051 187.733 187.733 187.733c103.682 0 187.733-84.051 187.733-187.733s-84.051-187.733-187.733-187.733v0zM631.467 823.739c0 9.144 7.672 16.794 16.794 16.794h239.478c9.144 0 16.794-7.672 16.794-16.794v-239.478c0-9.144-7.672-16.794-16.794-16.794h-239.478c-9.144 0-16.794 7.672-16.794 16.794v239.478zM529.067 823.739v-239.478c0-65.61 53.43-119.194 119.194-119.194h239.478c65.61 0 119.194 53.43 119.194 119.194v239.478c0 65.61-53.43 119.194-119.194 119.194h-239.478c-65.61 0-119.194-53.43-119.194-119.194v0z" />
<glyph unicode="&#xe970;" glyph-name="rejection" horiz-adv-x="832" d="M772.197 782.059c-26.859 26.859-67.148 33.574-100.721 20.144 0 20.144-6.715 40.289-26.859 60.433-13.43 13.43-40.289 26.859-73.862 26.859-20.144 0-33.574-6.715-47.003-6.715 0 13.43-6.715 20.144-13.43 33.574-33.574 40.289-100.721 40.289-134.295 0-13.43-13.43-26.859-26.859-26.859-40.289-13.43 0-26.859 6.715-40.289 6.715-33.574 0-53.718-13.43-73.862-33.574-33.574-33.574-33.574-87.292-33.574-87.292v-255.161c-20.144 20.144-53.718 53.718-100.721 53.718-13.43 0-33.574-6.715-47.003-13.43-26.859-13.43-40.289-33.574-47.003-60.433-20.144-67.148 40.289-161.154 40.289-167.869 6.715-6.715 80.577-181.298 147.725-255.161 67.148-80.577 141.010-127.58 329.023-127.58 194.728 0 282.020 107.436 282.020 342.452v369.311c0 6.715 6.715 87.292-33.574 134.295v0zM402.885 808.918c0 20.144-6.715 67.148 33.574 67.148 33.574 0 33.574-33.574 33.574-67.148v-268.59c0-20.144 13.43-33.574 33.574-33.574s33.574 13.43 33.574 33.574v255.161c0 0 0 26.859 33.574 26.859 40.289 0 33.574-60.433 33.574-60.433v-221.587c0-20.144 13.43-33.574 33.574-33.574s33.574 13.43 33.574 33.574v161.154c0 6.715 0 40.289 33.574 40.289s33.574-67.148 33.574-67.148v-396.17c0-228.302-87.292-275.305-214.872-275.305-161.154 0-221.587 33.574-275.305 107.436-60.433 67.148-141.010 241.731-141.010 248.446-20.144 20.144-47.003 80.577-40.289 107.436 0 6.715 6.715 13.43 13.43 20.144 6.715 0 13.43 6.715 13.43 6.715 26.859 0 53.718-33.574 60.433-47.003l40.289-60.433c6.715-13.43 26.859-20.144 40.289-13.43 26.859 0 33.574 13.43 33.574 26.859v349.167c0 26.859 0 67.148 33.574 67.148 26.859 0 33.574-20.144 33.574-53.718v-221.587c0-20.144 13.43-33.574 33.574-33.574s33.574 13.43 33.574 33.574v268.59zM601.549 345.716l-40.752 40.752-90.765-92.617-90.765 92.617-40.752-40.752 92.617-90.765-92.617-90.765 40.752-40.752 90.765 92.617 90.765-92.617 40.752 40.752-92.617 90.765z" />
<glyph unicode="&#xe971;" glyph-name="remove" d="M512 960c-281.6 0-512-230.4-512-512s230.4-512 512-512c281.6 0 512 230.4 512 512s-230.4 512-512 512v0zM832 384h-640v128h640v-128z" />
<glyph unicode="&#xe972;" glyph-name="search" d="M1004.8 44.8l-268.8 268.8c-12.8 12.8-32 19.2-51.2 19.2 51.2 64 83.2 153.6 83.2 243.2 0 211.2-172.8 384-384 384s-384-172.8-384-384c0-211.2 172.8-384 384-384 89.6 0 179.2 32 243.2 89.6 0-19.2 0-38.4 19.2-51.2l268.8-268.8c12.8-12.8 32-19.2 44.8-19.2s32 6.4 44.8 19.2c25.6 19.2 25.6 57.6 0 83.2v0zM384 288c-160 0-288 128-288 288s128 288 288 288c160 0 288-128 288-288s-128-288-288-288v0z" />
<glyph unicode="&#xe973;" glyph-name="intransit" d="M520.866-48.485c274.201 0 496.485 222.284 496.485 496.485s-222.284 496.485-496.485 496.485c-274.201 0-496.485-222.284-496.485-496.485s222.284-496.485 496.485-496.485v0zM520.866 36.627c-227.195 0-411.373 184.178-411.373 411.373s184.178 411.373 411.373 411.373c227.195 0 411.373-184.178 411.373-411.373s-184.178-411.373-411.373-411.373v0zM515.28 266.783c75.063 0 135.913 60.85 135.913 135.913s-60.85 135.913-135.913 135.913c-75.063 0-135.913-60.85-135.913-135.913s60.85-135.913 135.913-135.913v0zM515.28 359.874c-23.65 0-42.822 19.172-42.822 42.822s19.172 42.822 42.822 42.822c23.65 0 42.822-19.172 42.822-42.822s-19.172-42.822-42.822-42.822v0zM217.212 432.485c0 171.391 138.901 310.303 310.303 310.303 171.391 0 310.303-138.901 310.303-310.303 0-17.138 13.893-31.030 31.030-31.030s31.030 13.893 31.030 31.030c0 205.678-166.699 372.364-372.364 372.364-205.678 0-372.364-166.699-372.364-372.364 0-17.138 13.893-31.030 31.030-31.030s31.030 13.893 31.030 31.030v0zM498.367 496.428l-108.606 108.606c-18.177 18.177-47.648 18.177-65.825 0s-18.177-47.648 0-65.825l108.606-108.606c18.177-18.177 47.648-18.177 65.825 0s18.177 47.648 0 65.825v0z" />
<glyph unicode="&#xe974;" glyph-name="email_available" horiz-adv-x="1489" d="M-0.23 960v-1024h1489.455v1024h-1489.455zM92.861 578.327l363.055-186.182-363.055-316.509v502.691zM176.643 29.091l372.364 325.818 195.491-102.4 195.491 102.4 372.364-325.818h-1135.709zM1396.134 75.636l-363.055 325.818 363.055 186.182v-512zM1396.134 690.036l-651.636-325.818-651.636 325.818v176.873h1303.273v-176.873z" />
<glyph unicode="&#xe975;" glyph-name="load_available" d="M961.453-42.667h-917.333c-23.467 0-42.667 19.2-42.667 42.667s19.2 42.667 42.667 42.667h919.467c23.467 0 42.667-19.2 42.667-42.667-2.133-23.467-21.333-42.667-44.8-42.667zM182.786 136.533c-23.467 0-42.667 19.2-42.667 42.667v682.667c0 23.467 19.2 42.667 42.667 42.667s42.667-19.2 42.667-42.667v-682.667c0-25.6-19.2-42.667-42.667-42.667zM323.586 716.8c-10.667 0-23.467 4.267-32 14.933l-108.8 123.733-108.8-123.733c-14.933-17.067-42.667-19.2-59.733-4.267s-19.2 42.667-4.267 59.733l140.8 160c14.933 17.067 46.933 17.067 61.867 0l140.8-160c14.933-17.067 12.8-44.8-4.267-59.733-6.4-6.4-17.067-10.667-25.6-10.667zM820.653 960c23.467 0 42.667-19.2 42.667-42.667v-682.667c0-23.467-19.2-42.667-42.667-42.667s-42.667 19.2-42.667 42.667v682.667c2.133 25.6 19.2 42.667 42.667 42.667zM681.986 379.733c10.667 0 23.467-4.267 32-14.933l106.667-123.733 108.8 123.733c14.933 17.067 42.667 19.2 59.733 4.267s19.2-42.667 4.267-59.733l-140.8-160c-14.933-17.067-46.933-17.067-61.867 0l-140.8 160c-14.933 17.067-12.8 44.8 4.267 59.733 6.4 6.4 17.067 10.667 27.733 10.667z" />
<glyph unicode="&#xe976;" glyph-name="no-result" horiz-adv-x="1365" d="M511.834 789.333c0-94.251-76.416-170.667-170.667-170.667s-170.667 76.416-170.667 170.667c0 94.251 76.416 170.667 170.667 170.667s170.667-76.416 170.667-170.667v0zM1194.501 789.333c0-94.251-76.416-170.667-170.667-170.667s-170.667 76.416-170.667 170.667c0 94.251 76.416 170.667 170.667 170.667s170.667-76.416 170.667-170.667v0zM-0.166 106.667h1365.333v-170.667h-1365.333z" />
<glyph unicode="&#xe977;" glyph-name="Plus" d="M1024 576h-384v384h-256v-384h-384v-256h384v-384h256v384h384z" />
<glyph unicode="&#xe978;" glyph-name="event" horiz-adv-x="323" d="M134.543 526.607v113.421c-46.49 11.966-80.842 54.168-80.842 104.394s34.352 92.428 80.842 104.394v111.185h53.895v-111.185c46.49-11.966 80.842-54.168 80.842-104.394s-34.352-92.428-80.842-104.394v-113.421c76.469-12.829 134.737-79.334 134.737-159.449s-58.268-146.62-134.737-159.449v-271.709h-53.895v271.709c-76.469 12.829-134.737 79.334-134.737 159.449s58.268 146.62 134.737 159.449zM161.49 663.579c44.648 0 80.842 36.194 80.842 80.842s-36.194 80.842-80.842 80.842c-44.648 0-80.842-36.194-80.842-80.842s36.194-80.842 80.842-80.842z" />
<glyph unicode="&#xe979;" glyph-name="map" horiz-adv-x="1502" d="M728.584 802.165c-44.224 0-80.072-35.848-80.072-80.057 0-44.224 35.848-80.072 80.072-80.072s80.072 35.848 80.072 80.072c0 44.209-35.848 80.057-80.072 80.057v0zM728.584 263.218c0 0-230.977 336.75-230.977 461.955s109.237 230.977 230.977 230.977c121.741 0 230.977-105.772 230.977-230.977s-230.977-461.955-230.977-461.955v0zM1267.532 817.564l-230.977 30.797 61.594-723.729 307.97-76.992-138.586 769.925zM420.615 848.361l-230.977-30.797-138.586-769.925 307.97 76.992 61.594 723.729zM1082.75 93.835l-354.165-92.391-354.165 92.391-369.564-92.391 153.985 846.917 292.571 46.195 56.251-9.362c-7.407-12.273-13.628-25.608-19.125-39.528l-21.727 2.695-61.594-723.729 307.97-76.992v188.154c9.639-11.965 15.398-18.771 15.398-18.771s5.774 6.791 15.398 18.771v-188.154l307.97 76.992-61.594 723.729-21.558-2.695c-5.466 13.966-11.872 27.225-19.294 39.513l56.251 9.378 292.571-46.195 153.985-846.917-369.564 92.391z" />
<glyph unicode="&#xe97a;" glyph-name="back" d="M31.503 399.436c-15.378 11.638-25.315 30.141-25.315 51.147 0 20.697 9.955 39.1 25.171 50.799 3.015 7.374 7.456 14.313 13.33 20.395l376.697 390.081c24.681 25.558 65.124 26.544 90.727 1.819 25.426-24.554 26.011-65.196 1.349-90.735l-297.778-308.358h733.198c35.191 0 63.719-28.407 63.719-64 0-35.346-29.035-64-63.719-64h-733.198l297.778-308.358c24.663-25.539 24.077-66.182-1.349-90.735-25.603-24.725-66.046-23.739-90.727 1.819l-376.697 390.081c-5.781 5.986-10.174 12.802-13.186 20.046z" />
<glyph unicode="&#xe97b;" glyph-name="handshake" horiz-adv-x="1725" d="M1605.542 662.109c-45.199 83.181-104.611 176.932-124.338 270.694-21.34-11.874-203.279-98.947-200.144-113.748 15.099-71.207 61.293-143.17 94.468-206.663 28.696-54.913 58.407-109.348 90.168-162.54 17.060-28.576 34.021-63.493 58.775-86.545 66.957 36.549 133.904 73.138 200.343 110.622-51.121 50.215-85.51 126.030-119.272 188.18-50.046 92.089 29.114-53.579 0 0v0zM365.762 766.779c6.101 24.266 14.014 50.374 14.393 75.666 0.090 6.261-46.96 17.329-53.35 19.389-58.178 18.812-116.346 37.634-174.524 56.446-0.975-78.095-34.011-162.231-57.421-235.598-24.147-75.656-46.721-170.343-94.677-235.289 31.811-10.491 219.881-87.073 233.040-64.090 29.562 51.619 47.796 111.578 67.007 167.586 24.396 71.077 47.189 142.981 65.533 215.89 13.477 53.569-11.556-45.935 0 0v0zM878.821-18.637c-29.99 20.902-43.666 42.232-60.587 73.715-21.111 39.286-56.725 13.855-67.982-18.673-12.014-34.698-5.305-70.54 32.956-82.743 35.325-11.267 74.611 5.285 105.646 21.689-3.643 1.483-6.987 3.494-10.033 6.012-18.384 12.82 1.851-1.284 0 0v0zM1324.845 304.502c-87.212 74.382-178.863 142.374-261.925 221.573-65.344 62.299-198.173 196.969-266.045 71.734-23.689-43.715-41.695-97.783-93.065-115.639-49.16-17.080-98.639 0.936-106.253 56.068-14.642 106.064 12.024 224.888 110.881 278.447-97.165-5.604-192.211 2.588-289.127 6.49-27.034 1.085-21.639-23.938-27.034-47.070-5.793-24.794-12.183-49.459-19.509-73.835-15.916-53.022-25.56-107.766-44.353-159.942-15.060-41.834-31.861-83.46-40.142-127.324-7.545-39.983 23.012-74.322 51.011-98.32 12.959-11.108 28.477-31.124 41.625-19.101 13.885 12.701 33.463 15.786 51.539 13.089 37.445-5.604 81.777-36.778 80.583-78.622 29.811 19.847 61.114 41.078 99.057 37.027 40.51-4.32 77.149-34.698 74.681-78.095 58.546 39.764 125.772-34.966 101.077-93.224 47.826-1.015 51.34-54.226 79.618-81.389 38.38-34.578 99.534-54.087 145.33-22.953-52.027 13.547-95.055 51.111-136.053 83.967-11.904 9.535-47.289 28.099-48.632 42.641-2.727 29.353 47.846-16.871 52.256-20.395 42.023-33.722 86.446-75.138 140.333-88.058 38.142-9.147 114.017-6.002 128.598 40.52-55.53 27.014-104.78 75.825-154.278 112.543-16.393 12.163-32.846 24.237-49.359 36.24-8.441 3.414-14.482 9.048-18.135 16.901-1.443 9.048 9.217 15.279 16.383 10.073 37.664-27.253 75.069-54.883 112.125-82.972 45.746-34.688 105.825-101.824 169.985-78.702 19.867 7.157 74.79 69.614 40.232 86.884-24.953 12.462-47.826 29.88-70.212 46.333-57.491 42.222-113.688 87.142-166.123 135.526-6.111 5.644-22.017 16.234-12.392 26.178 11.158 11.526 29.522-13.776 36.569-20.146 28.945-26.168 59.044-51.061 89.591-75.328 39.943-31.732 86.625-77.995 135.426-95.862 27.213-9.963 64.697 10.073 81.588 30.517 34.071 41.247-4.758 77.677-35.852 104.222-3.494 2.976 19.857-16.951 0 0v0zM1462.421 366.631c-29.373 86.943-74.302 167.994-117.869 248.418-17.219 31.781-35.056 63.214-49.558 96.359-14.124 32.309-25.72 74.581-55.56 96.23-56.914 41.297-141.16 25.043-206.066 41.147-39.246 9.725-77.418 25.7-117.968 29.373-45.487 4.121-82.544-14.92-120.596-37.305l0.408 0.030c-45.218-25.511-102.938-47.378-136.292-88.367-35.623-46.781-38.112-106.91-41.128-163.097-2.618-48.782 6.38-116.435 75.795-87.421 68.042 28.427 68.49 109.408 120.954 153.144 56.665 47.249 139.487-6.241 186.279-43.636 64.419-51.469 119.073-113.997 183.342-165.934 54.316-43.905 109.508-86.366 162.261-132.182 27.631-23.998 53.151-17.697 80.274 2.687 14.243 10.7 40.192 29.91 35.723 50.553v0zM676.279-1.596c0 1.254 0 1.264 0 0v0zM753.916 80.31c23.709 34.11 26.546 99.465-32.219 100.321-33.105 0.478-66.758-52.932-88.476-73.805-35.544-34.16-37.654-59.75 10.162-83.688 54.883-27.481 74.939 23.44 110.533 57.173 15.537 22.345-6.709-6.36 0 0v0zM487.363 215.906c28.198 50.464-78.781 105.297-100.341 54.853-26.745-62.617 63.005-121.711 100.341-54.853v0zM550.229 65.599l0.030-3.742c0 1.244-0.010 2.488-0.030 3.742v0zM653.555 157.599c32.886 49.19-11.198 101.286-65.673 89.461-32.179-6.987-88.237-35.205-99.604-68.719-11.924-35.146 20.275-102.301 61.93-102.301 37.833-0.975 80.394 56.167 103.347 81.558 12.492 18.693-17.647-19.519 0 0v0zM1497.577 945.543c-0.747 0.965-0.229 0.299 0 0v0z" />
<glyph unicode="&#xe97c;" glyph-name="star" horiz-adv-x="1086" d="M542.997 169.106l-333.782-228.843 130.61 386.172-333.782 243.145h420.855l116.098 386.172 116.098-386.172h420.855l-333.782-243.145 130.61-386.172z" />
<glyph unicode="&#xe97d;" glyph-name="checkmark" d="M864 832l-480-480-224 224-160-160 384-384 640 640z" />
<glyph unicode="&#xe97e;" glyph-name="op-settings" d="M902.095 374.857h-32.783l-4.687-18.346c-8.303-32.499-21.331-63.66-38.722-93.113l-9.658-16.356 23.445-23.215c28.522-28.522 28.522-74.8-0.063-103.312-28.633-28.633-74.83-28.633-103.441-0.022l-23.393 23.164-16.191-9.56c-29.453-17.391-60.614-30.419-93.113-38.722l-18.346-4.687v-32.783c0-40.428-32.737-73.143-73.143-73.143s-73.143 32.715-73.143 73.143v32.783l-18.346 4.687c-32.499 8.303-63.66 21.331-93.113 38.722l-16.273 9.609-23.213-23.213c-28.61-28.61-74.906-28.61-103.516 0-28.607 28.534-28.607 74.812 0 103.419l23.392 23.163-9.72 16.373c-17.216 29.001-30.193 60.149-38.709 93.125l-4.722 18.285h-32.733c-40.368 0-73.143 32.775-73.143 73.143s32.775 73.143 73.143 73.143h32.733l4.722 18.285c8.458 32.751 21.47 63.93 38.738 93.174l9.658 16.356-23.445 23.215c-28.525 28.526-28.525 74.821 0.085 103.432s74.906 28.61 103.516 0l23.163-23.392 16.373 9.72c29.001 17.216 60.149 30.193 93.125 38.709l18.285 4.722v32.733c0 40.368 32.775 73.143 73.143 73.143s73.143-32.775 73.143-73.143v-32.733l18.285-4.722c32.751-8.458 63.93-21.47 93.174-38.738l16.356-9.658 23.215 23.445c28.526 28.525 74.724 28.525 103.334-0.085s28.61-74.906 0-103.516l-23.213-23.213 9.609-16.273c17.391-29.453 30.419-60.614 38.722-93.113l4.687-18.346h32.783c40.428 0 73.143-32.737 73.143-73.143s-32.715-73.143-73.143-73.143zM1024 448c0 65.777-52.054 119.382-117.268 121.818-7.532 24.493-17.44 48.23-29.583 71.069 44.467 47.851 43.413 122.622-3.162 169.196-46.598 46.598-121.327 47.63-169.17 3.095-22.727 12.062-46.44 21.939-70.997 29.519-2.422 65.168-56.062 117.302-121.819 117.302-65.755 0-119.394-52.131-121.819-117.295-24.662-7.596-48.381-17.459-71.024-29.506-47.931 44.513-122.677 43.449-169.241-3.115-46.598-46.598-47.63-121.42-3.095-169.268-12.062-22.727-21.939-46.44-29.519-70.997-65.168-2.422-117.302-56.062-117.302-121.819 0-65.755 52.131-119.394 117.295-121.819 7.596-24.662 17.459-48.381 29.506-71.024-44.517-47.936-43.452-122.695 3.137-169.165 46.553-46.553 121.323-47.607 169.174-3.14 22.839-12.144 46.576-22.052 71.069-29.583 2.436-65.214 56.042-117.268 121.818-117.268s119.382 52.054 121.818 117.268c24.514 7.538 48.271 17.456 71.128 29.614 47.762-44.5 122.525-43.483 169.138 3.131 46.6 46.481 47.633 121.313 3.1 169.166 12.128 22.819 22.023 46.533 29.548 71.003 65.214 2.436 117.268 56.042 117.268 121.818zM512 667.429c-121.132 0-219.429-98.297-219.429-219.429s98.297-219.429 219.429-219.429c121.132 0 219.429 98.297 219.429 219.429s-98.297 219.429-219.429 219.429zM512 618.667c94.201 0 170.667-76.466 170.667-170.667s-76.466-170.667-170.667-170.667c-94.201 0-170.667 76.466-170.667 170.667s76.466 170.667 170.667 170.667z" />
<glyph unicode="&#xe97f;" glyph-name="minus" d="M512 896c249.6 0 448-198.4 448-448s-198.4-448-448-448c-249.6 0-448 198.4-448 448s198.4 448 448 448v0zM512 960c-281.6 0-512-230.4-512-512s230.4-512 512-512c281.6 0 512 230.4 512 512s-230.4 512-512 512v0 0zM192 512h640v-128h-640z" />
<glyph unicode="&#xe980;" glyph-name="mobile-back" horiz-adv-x="853" d="M726.71 857.913l-95.256 95.256-505.17-505.17 505.17-505.17 95.256 95.256-409.914 409.914 409.914 409.914z" />
<glyph unicode="&#xe981;" glyph-name="avatar" horiz-adv-x="853" d="M442.329 414.067c149.221 0 270.188 120.967 270.188 270.188s-120.967 270.188-270.188 270.188c-149.221 0-270.188-120.967-270.188-270.188s120.967-270.188 270.188-270.188zM442.329 489.919c-107.329 0-194.336 87.007-194.336 194.336s87.007 194.336 194.336 194.336c107.329 0 194.336-87.007 194.336-194.336s-87.007-194.336-194.336-194.336zM851.533-58.438c0 234.737-190.292 425.029-425.029 425.029s-425.029-190.292-425.029-425.029h75.852c0 192.845 156.332 349.178 349.178 349.178s349.178-156.332 349.178-349.178h75.852z" />
<glyph unicode="&#xe982;" glyph-name="help" d="M512-64c55.334 0 109.083 8.667 161.25 26s99.25 41.833 141.25 73.5c42.001 31.667 78.75 68.583 110.25 110.75s55.917 89.333 73.25 141.5c17.333 52.167 26 105.916 26 161.25 0 69-13.583 135-40.75 198s-63.583 117.333-109.25 163c-45.667 45.667-100.083 82.083-163.25 109.25s-129.416 40.75-198.75 40.75c-69.334 0-135.583-13.583-198.75-40.75s-117.583-63.583-163.25-109.25c-45.667-45.667-82.083-100-109.25-163s-40.75-129-40.75-198c0-55.334 8.667-109.083 26-161.25s41.75-99.333 73.25-141.5c31.5-42.167 68.25-79.083 110.25-110.75s89.083-56.167 141.25-73.5c52.167-17.333 105.916-26 161.25-26v0zM512 860c56 0 109.5-10.833 160.5-32.5s94.916-50.833 131.75-87.5c36.833-36.667 66.166-80.416 88-131.25s32.749-104.083 32.749-159.75c0-56-10.916-109.5-32.749-160.5s-51.167-94.916-88-131.75c-36.834-36.834-80.75-66.167-131.75-88s-104.5-32.75-160.5-32.75c-56 0-109.5 10.917-160.5 32.75s-94.916 51.166-131.75 88c-36.833 36.834-66.166 80.75-88 131.75s-32.75 104.5-32.75 160.5c0 55.667 10.917 108.916 32.75 159.75s51.167 94.583 88 131.25c36.834 36.667 80.75 65.833 131.75 87.5s104.5 32.5 160.5 32.5v0zM410 594c7.333 31.667 19.667 55.333 37 71 19.333 15.333 42.333 23 69 23 28 0 50.333-7.333 67-22s25-32.667 25-54c0-16-4.667-29.667-14-41-6-8-24.666-24.667-56-50-31-26-52-49-63-69-10.001-21-15-46-15-75v-23l1-6c0-4 0.584-7.667 1.75-11s2.333-6 3.5-8c1.167-2 3.167-3.75 6-5.25s5-2.667 6.5-3.5c1.5-0.833 4.25-1.417 8.25-1.75s6.749-0.5 8.25-0.5h16.75c11 0 19.167 0.417 24.5 1.25s10.083 3.333 14.25 7.5c4.166 4.167 6.25 10.583 6.25 19.25 0 11.333 0.667 23 2.001 35 1 12.333 3 22 5.999 29 4.333 10.667 18.333 25.667 42.001 45 44.667 37.667 73.333 66.667 85.999 87 13.334 21.667 20 44 20 67 0 43.334-18.333 80.333-55 111-35.667 32.667-84.666 49-147 49-58.668 0-106-16-142.001-48-33-28-51.999-63-57-105-0.667-2-1-5.333-1-10 0-13.667 4.833-25.417 14.5-35.25s21.167-14.75 34.5-14.75c11.333 0 21.5 3.583 30.5 10.75s14.833 16.25 17.5 27.25h2zM512 271c-20 0-37.167-7-51.5-21s-21.5-31-21.5-51c0-19.667 7.166-36.75 21.5-51.25s31.5-21.75 51.5-21.75c20 0 37.167 7.25 51.5 21.75s21.5 31.583 21.5 51.25c0 20-7.166 37-21.5 51s-31.5 21-51.5 21v0z" />
<glyph unicode="&#xe983;" glyph-name="ec" horiz-adv-x="1745" d="M1070.322 452.172c1.365 31.858 6.030 60.075 13.995 84.651s19.001 45.056 33.109 61.44c14.564 16.384 29.468 30.379 44.715 41.984s31.289 20.821 48.128 27.648c11.833 5.006 23.211 8.988 34.133 11.947s21.618 5.348 32.085 7.168c10.468 1.365 20.025 2.617 28.672 3.755s16.384 1.934 23.211 2.389l43.008 1.365v-59.392h-37.547c-29.127-2.276-54.727-6.94-76.8-13.995s-40.846-17.18-56.32-30.379c-15.474-12.743-27.989-26.055-37.547-39.936s-16.384-28.331-20.48-43.349c-0.455-1.365-0.796-2.617-1.024-3.755s-0.341-2.162-0.341-3.072c-0.455-1.365-0.796-2.617-1.024-3.755s-0.341-2.162-0.341-3.072l231.424 1.365v-58.709h-231.424c0-5.006 0.228-9.671 0.683-13.995s1.365-8.988 2.731-13.995c1.365-4.551 2.958-9.216 4.779-13.995s3.641-9.671 5.461-14.677c6.372-13.198 14.45-25.941 24.235-38.229s21.049-23.893 33.792-34.816c13.198-10.923 26.965-19.115 41.301-24.576s29.696-8.192 46.080-8.192h7.509l64.853 1.365v-59.392h-77.824c-4.096 0.455-8.192 1.024-12.288 1.707s-7.964 1.252-11.605 1.707c-25.031 5.006-49.038 13.881-72.021 26.624s-44.715 28.899-65.195 48.469c-20.935 20.025-36.523 43.008-46.763 68.949s-15.36 55.068-15.36 87.381v1.365zM1430.087 457.633c0 28.672 4.551 55.182 13.653 79.531s22.755 46.307 40.96 65.877c18.66 20.025 38.002 36.636 58.027 49.835s40.96 23.211 62.805 30.037c5.006 1.82 10.126 3.413 15.36 4.779s10.354 2.276 15.36 2.731c5.006 0.91 10.126 1.593 15.36 2.048s10.354 0.683 15.36 0.683l69.632 1.365v-59.392h-53.931c-30.948-3.641-58.14-10.695-81.579-21.163s-43.122-25.031-59.051-43.691c-15.474-18.205-27.193-37.319-35.157-57.344s-11.947-40.732-11.947-62.123c0-4.551 0.228-9.785 0.683-15.701s1.365-12.288 2.731-19.115c0.91-3.186 1.707-6.599 2.389-10.24s1.707-7.054 3.072-10.24c0.91-3.641 2.048-7.168 3.413-10.581s2.958-6.94 4.779-10.581c5.461-12.743 12.971-24.803 22.528-36.181s20.935-22.3 34.133-32.768c13.198-10.468 29.241-18.318 48.128-23.552s40.846-7.851 65.877-7.851l53.931 1.365v-59.392h-86.016c-35.044 0.455-66.219 6.713-93.525 18.773s-50.517 29.468-69.632 52.224c-19.115 22.756-33.451 48.242-43.008 76.459s-14.336 59.164-14.336 92.843v1.365zM479.36 48.938c2.019 1.119 4.2 1.119 6.22 0l-3.11 1.724-3.11-1.724zM485.58 847.062c-2.019-1.119-4.2-1.119-6.22 0l3.11-1.724 3.11 1.724zM761.833 690.495l-279.363 154.843-360.296-199.702v-395.271l360.296-199.702 266.674 147.81 104.643-72.085-319.27-176.963c-32.293-17.899-71.802-17.899-104.096 0l-368.326 204.153c-33.003 18.293-53.7 52.671-53.7 90.269v408.307c0 37.598 20.697 71.976 53.7 90.269l368.326 204.153c32.293 17.899 71.802 17.899 104.096 0l331.958-183.995-104.643-72.085zM615.211 466.963c0-83.784-67.92-151.704-151.704-151.704s-151.704 67.92-151.704 151.704c0 83.784 67.92 151.704 151.704 151.704s151.704-67.92 151.704-151.704z" />
<glyph unicode="&#xe984;" glyph-name="billing" horiz-adv-x="3029" d="M348.048 661.567l0.633 255.766h128v-356.835l-128.633 101.069zM347.244 336.631l-0.713-288.053 130.151-69.911v256.264l-129.438 101.701zM1074.015 197.547v387.072c0 2.56 0.256 5.12 0.768 7.68l1.536 7.68c2.56 17.92 7.808 34.944 15.744 51.072s18.816 31.616 32.64 46.464c13.312 14.848 30.464 26.368 51.456 34.56s45.568 13.056 73.728 14.592c22.528 0 43.648-3.072 63.36-9.216s38.016-15.104 54.912-26.88c16.896-12.288 29.568-27.52 38.016-45.696s12.672-39.296 12.672-63.36c0-16.896-0.896-31.232-2.688-43.008s-4.736-21.248-8.832-28.416c-3.584-7.168-8.32-13.824-14.208-19.968s-12.416-12.032-19.584-17.664c-0.512-0.512-1.152-1.024-1.92-1.536s-1.664-1.024-2.688-1.536c-0.512-0.512-1.152-1.024-1.92-1.536s-1.664-1.024-2.688-1.536c13.824-5.12 25.856-11.392 36.096-18.816s18.432-16 24.576-25.728c6.144-9.728 11.008-19.456 14.592-29.184s6.144-19.712 7.68-29.952v-3.072c0-1.024 0.256-2.048 0.768-3.072v-9.216c0-1.024 0.256-1.792 0.768-2.304v-13.824c0-0.512 0.128-1.024 0.384-1.536s0.384-1.024 0.384-1.536c0-22.016-3.584-41.984-10.752-59.904s-17.92-34.048-32.256-48.384c-14.336-14.336-30.080-24.96-47.232-31.872s-35.968-10.368-56.448-10.368h-125.952v72.192h96.768c13.312-1.024 25.984 0.128 38.016 3.456s23.168 8.32 33.408 14.976c10.24 6.656 18.048 15.36 23.424 26.112s8.064 23.808 8.064 39.168c0 16.384-2.816 30.464-8.448 42.24s-13.824 20.992-24.576 27.648c-10.752 7.168-23.040 12.416-36.864 15.744s-28.928 4.992-45.312 4.992l-84.48 1.536v66.048h66.816c16.896-1.024 31.488 0.128 43.776 3.456s22.272 8.32 29.952 14.976c7.68 6.656 13.824 13.568 18.432 20.736s7.68 14.848 9.216 23.040v1.536c0 0.512 0.256 1.28 0.768 2.304v5.376c0 0.512 0.256 1.28 0.768 2.304v3.84c0 13.312-2.176 25.472-6.528 36.48s-10.88 20.608-19.584 28.8c-8.192 8.704-18.304 15.104-30.336 19.2s-25.472 6.144-40.32 6.144c-16.384 0-30.592-2.304-42.624-6.912s-21.632-11.52-28.8-20.736c-7.168-9.216-12.8-18.944-16.896-29.184s-6.656-20.736-7.68-31.488c-0.512-1.536-0.768-2.944-0.768-4.224v-389.76h-79.104zM1539.423 197.547v368.64h66.816v-368.64h-66.816zM1534.047 651.435c0 5.632 1.024 10.88 3.072 15.744s5.376 9.088 9.984 12.672c4.096 3.072 8.576 5.504 13.44 7.296s9.856 2.688 14.976 2.688c5.632 0 10.752-0.768 15.36-2.304s9.216-4.096 13.824-7.68c4.608-3.584 8.064-7.808 10.368-12.672s3.456-10.624 3.456-17.28c0-6.656-1.152-12.544-3.456-17.664s-5.504-9.472-9.6-13.056c-4.608-3.584-9.216-6.144-13.824-7.68s-9.472-2.304-14.592-2.304c-5.12-0.512-10.24 0-15.36 1.536s-9.984 4.096-14.592 7.68c-4.608 3.584-7.936 8.064-9.984 13.44s-3.072 11.392-3.072 18.048v1.536zM1727.583 735.915h72.192v-538.368h-72.192v538.368zM1896.543 735.915h72.192v-538.368h-72.192v538.368zM2089.311 197.547v368.64h66.816v-368.64h-66.816zM2083.935 651.435c0 5.632 1.024 10.88 3.072 15.744s5.376 9.088 9.984 12.672c4.096 3.072 8.576 5.504 13.44 7.296s9.856 2.688 14.976 2.688c5.632 0 10.752-0.768 15.36-2.304s9.216-4.096 13.824-7.68c4.608-3.584 8.064-7.808 10.368-12.672s3.456-10.624 3.456-17.28c0-6.656-1.152-12.544-3.456-17.664s-5.504-9.472-9.6-13.056c-4.608-3.584-9.216-6.144-13.824-7.68s-9.472-2.304-14.592-2.304c-5.12-0.512-10.24 0-15.36 1.536s-9.984 4.096-14.592 7.68c-4.608 3.584-7.936 8.064-9.984 13.44s-3.072 11.392-3.072 18.048v1.536zM2271.327 197.547v223.488c0 20.48 3.584 39.808 10.752 57.984s17.92 35.2 32.256 51.072c14.848 15.36 32.256 27.008 52.224 34.944s42.752 11.904 68.352 11.904c4.096 0 8.576-0.256 13.44-0.768s10.112-1.28 15.744-2.304c5.632-1.024 11.392-2.304 17.28-3.84s11.904-3.584 18.048-6.144c10.752-4.608 20.992-10.496 30.72-17.664s19.2-15.872 28.416-26.112c9.216-9.728 16.128-21.76 20.736-36.096s6.912-30.72 6.912-49.152v-237.312h-72.96v217.344c0 11.264-1.664 22.4-4.992 33.408s-8.32 21.376-14.976 31.104c-6.656 10.24-15.36 17.92-26.112 23.040s-23.552 7.68-38.4 7.68c-13.824 0-25.984-2.304-36.48-6.912s-19.584-11.52-27.264-20.736c-7.68-9.216-13.696-19.072-18.048-29.568s-7.296-21.632-8.832-33.408v-221.952h-66.816zM2712.927 100.779c6.656-2.048 13.056-3.84 19.2-5.376s12.032-3.072 17.664-4.608c5.632-1.024 11.392-2.176 17.28-3.456s11.392-2.176 16.512-2.688h4.608c1.536 0 3.328-0.256 5.376-0.768 1.536 0 3.072-0.128 4.608-0.384s3.072-0.384 4.608-0.384h4.608c1.536 0 3.072-0.256 4.608-0.768h9.984c18.432 0 35.2 2.432 50.304 7.296s28.544 12.16 40.32 21.888c11.776 9.728 20.736 20.864 26.88 33.408s9.472 26.496 9.984 41.856v5.376c-0.512 0.512-0.768 1.024-0.768 1.536v172.8c0 20.48-2.944 39.040-8.832 55.68s-14.72 31.36-26.496 44.16c-11.264 12.8-23.68 22.4-37.248 28.8s-27.776 9.6-42.624 9.6h-3.84c-1.024-0.512-1.792-0.768-2.304-0.768h-10.752c-13.824-2.048-27.008-6.144-39.552-12.288s-24.704-14.592-36.48-25.344c-11.264-10.752-19.712-24.576-25.344-41.472s-8.448-36.864-8.448-59.904c0-14.848 2.816-28.928 8.448-42.24s14.080-25.856 25.344-37.632c11.776-11.264 25.344-19.84 40.704-25.728s32.768-8.832 52.224-8.832h11.904c3.84 0 7.552 0.256 11.136 0.768 4.096 0.512 8.064 1.152 11.904 1.92s7.552 1.92 11.136 3.456c3.584 1.024 7.296 2.176 11.136 3.456s7.552 2.944 11.136 4.992c4.096 2.048 8.064 4.352 11.904 6.912s7.552 5.376 11.136 8.448v-70.656c-6.144-5.12-12.8-9.088-19.968-11.904s-14.592-5.248-22.272-7.296c-7.68-1.536-16.128-2.816-25.344-3.84s-18.944-1.536-29.184-1.536c-33.28 1.536-61.952 7.168-86.016 16.896s-43.52 23.808-58.368 42.24c-14.336 18.432-25.216 38.784-32.64 61.056s-11.136 46.208-11.136 71.808c0 25.6 3.2 48.512 9.6 68.736s16 37.504 28.8 51.84c12.8 14.336 26.24 26.496 40.32 36.48s28.8 17.792 44.16 23.424c6.144 2.56 12.288 4.608 18.432 6.144s12.288 2.816 18.432 3.84c6.144 1.024 12.032 1.792 17.664 2.304s11.008 0.768 16.128 0.768c24.064 0 47.104-4.096 69.12-12.288s42.496-20.48 61.44-36.864c19.456-15.872 33.92-34.432 43.392-55.68s14.208-44.672 14.208-70.272v-198.144c0-3.072-0.384-7.552-1.152-13.44s-1.92-12.928-3.456-21.12c-1.536-8.704-3.84-17.408-6.912-26.112s-7.168-17.92-12.288-27.648c-6.144-11.776-14.208-22.912-24.192-33.408s-21.888-20.608-35.712-30.336c-13.824-9.728-30.336-17.024-49.536-21.888s-41.344-7.296-66.432-7.296c-14.336 0-27.648 0.512-39.936 1.536s-23.552 2.816-33.792 5.376c-5.12 1.024-9.984 2.176-14.592 3.456s-8.96 2.432-13.056 3.456c-4.096 1.536-7.936 2.944-11.52 4.224s-6.912 2.432-9.984 3.456c-0.512 0.512-1.024 0.896-1.536 1.152s-1.024 0.384-1.536 0.384h-0.768l-0.768 0.768 18.432 60.672zM409.383 48.938c2.019 1.119 4.2 1.119 6.22 0l-3.11 1.724-3.11-1.724zM415.602 847.062c-2.019-1.119-4.2-1.119-6.22 0l3.11-1.724 3.11 1.724zM165.911 708.664l246.582 136.674 279.363-154.843 104.643 72.085-331.958 183.995c-32.293 17.899-71.802 17.899-104.096 0l-310.581-172.147c-17.012-6.522-22.447-12.25-30.354-21.829-21.863-26.491-12.181-64.734 12.62-84.023l622.15-483.898-241.787-134.016-235.582 130.577-99.739-74.804 283.273-157.011c32.293-17.899 71.802-17.899 104.096 0l311.541 172.679c6.355 2.516 12.495 6.705 18.243 12.911 23.965 25.871 15.12 73.121-9.681 92.41l-618.734 481.24z" />
<glyph unicode="&#xe985;" glyph-name="dock" horiz-adv-x="2901" d="M1413.743 76.133v538.368h168.96c5.12-1.024 10.368-1.792 15.744-2.304s10.624-1.28 15.744-2.304c5.632-1.024 11.264-2.304 16.896-3.84l16.896-4.608c21.504-7.68 42.112-18.56 61.824-32.64s38.272-31.616 55.68-52.608c17.92-20.48 31.36-44.16 40.32-71.040s13.44-56.448 13.44-88.704v-9.984c0-6.656-0.512-14.464-1.536-23.424s-2.816-19.328-5.376-31.104c-2.048-11.264-5.248-22.784-9.6-34.56s-9.6-23.808-15.744-36.096c-8.704-17.92-19.84-35.2-33.408-51.84s-29.312-32.384-47.232-47.232c-17.92-14.848-39.168-26.112-63.744-33.792s-52.48-11.776-83.712-12.288h-42.24v72.192h42.24c0-1.024 0.128-1.536 0.384-1.536h7.296c21.504 0 40.96 3.2 58.368 9.6s32.512 16 45.312 28.8c12.8 12.8 23.808 26.112 33.024 39.936s16.64 28.416 22.272 43.776c1.024 3.584 2.048 7.040 3.072 10.368s2.048 6.784 3.072 10.368c1.024 3.072 1.92 6.272 2.688 9.6s1.408 6.784 1.92 10.368c1.024 7.168 1.92 13.824 2.688 19.968s1.152 11.776 1.152 16.896v4.992c0 0.768 0.256 1.408 0.768 1.92v8.448c-0.512 23.040-4.736 45.184-12.672 66.432s-19.84 41.344-35.712 60.288c-15.872 19.456-35.84 33.92-59.904 43.392s-52.736 14.208-86.016 14.208l-54.528 1.536v-471.552h-78.336zM1860.719 269.669c0 28.16 4.864 53.504 14.592 76.032s24.064 42.24 43.008 59.136c19.456 16.896 40.064 29.568 61.824 38.016s44.672 12.672 68.736 12.672h6.912c1.024-0.512 2.176-0.768 3.456-0.768h11.904c1.024-0.512 2.176-0.768 3.456-0.768h3.456c20.48-3.072 40.064-9.088 58.752-18.048s36.736-20.864 54.144-35.712c16.896-15.36 29.696-34.56 38.4-57.6s13.056-49.92 13.056-80.64v-6.144c0-2.048-0.256-3.84-0.768-5.376 0-2.048-0.128-4.096-0.384-6.144s-0.384-4.096-0.384-6.144c-0.512-4.096-1.152-8.192-1.92-12.288s-1.664-8.192-2.688-12.288c-4.608-18.432-11.648-35.968-21.12-52.608s-21.632-32.384-36.48-47.232c-14.336-14.848-31.488-25.856-51.456-33.024s-42.24-10.752-66.816-10.752c-34.816 0-64.896 4.736-90.24 14.208s-45.952 23.936-61.824 43.392c-15.872 19.456-27.776 40.96-35.712 64.512s-11.904 48.896-11.904 76.032v1.536zM1933.679 269.669v-11.136c0-3.328 0.256-6.784 0.768-10.368s1.152-7.040 1.92-10.368c0.768-3.328 1.408-6.784 1.92-10.368 2.56-11.264 6.656-22.272 12.288-33.024s12.544-20.992 20.736-30.72c8.704-9.728 19.456-16.896 32.256-21.504s27.904-6.912 45.312-6.912c16.384 0 31.744 2.304 46.080 6.912s27.392 11.52 39.168 20.736c11.776 9.216 20.608 22.656 26.496 40.32s8.832 39.296 8.832 64.896c0 17.92-2.56 34.176-7.68 48.768s-12.8 27.52-23.040 38.784c-10.24 10.752-22.912 18.944-38.016 24.576s-32.384 8.448-51.84 8.448c-18.432 0-34.304-2.432-47.616-7.296s-24.32-12.416-33.024-22.656c-8.704-9.728-15.744-20.224-21.12-31.488s-9.088-22.784-11.136-34.56l-1.536-6.144c-0.512-2.048-0.768-4.096-0.768-6.144v-10.752zM2296.175 257.381c0 4.096 0.256 8.704 0.768 13.824s1.28 10.496 2.304 16.128c1.024 5.632 2.56 11.392 4.608 17.28s4.352 11.904 6.912 18.048c5.632 14.336 13.312 28.032 23.040 41.088s21.504 25.472 35.328 37.248c13.824 11.776 29.824 20.736 48 26.88s38.528 9.216 61.056 9.216l72.192 1.536v-66.048h-54.528c-3.584-1.024-7.168-1.664-10.752-1.92s-7.424-0.896-11.52-1.92c-4.096-0.512-8.192-1.28-12.288-2.304s-8.192-2.304-12.288-3.84c-9.216-3.584-18.048-8.192-26.496-13.824s-16.512-12.8-24.192-21.504c-7.68-8.192-13.44-18.304-17.28-30.336s-5.76-25.728-5.76-41.088v-8.448c0-1.536 0.128-3.072 0.384-4.608s0.384-3.072 0.384-4.608c0-1.536 0.256-3.072 0.768-4.608s0.768-3.072 0.768-4.608c0.512-2.048 1.024-3.84 1.536-5.376l1.536-4.608c2.56-9.728 6.656-19.072 12.288-28.032s12.544-17.536 20.736-25.728c8.192-8.192 18.176-14.208 29.952-18.048s25.6-5.76 41.472-5.76h10.752l54.528 1.536v-66.816h-78.336c-23.552 0.512-44.416 3.84-62.592 9.984s-33.92 15.104-47.232 26.88c-12.8 11.776-23.68 24.064-32.64 36.864s-16 26.112-21.12 39.936c-2.048 5.632-3.84 11.392-5.376 17.28s-2.816 11.648-3.84 17.28c-1.024 5.632-1.792 11.008-2.304 16.128s-0.768 10.24-0.768 15.36v1.536zM2598.767 614.501h66.816v-302.592h36.096c4.608-1.024 9.216-1.152 13.824-0.384s8.704 1.92 12.288 3.456c4.096 1.536 8.064 3.712 11.904 6.528s7.552 6.528 11.136 11.136c1.536 2.56 3.328 5.12 5.376 7.68s4.096 5.376 6.144 8.448c2.048 3.072 4.096 6.528 6.144 10.368s4.096 7.808 6.144 11.904l42.24 73.728h78.336c-0.512-2.048-1.152-3.84-1.92-5.376l-1.92-3.84c-1.024-1.536-1.792-2.944-2.304-4.224s-1.28-2.432-2.304-3.456c-0.512-1.536-1.152-2.944-1.92-4.224s-1.408-2.432-1.92-3.456c-1.024-1.536-1.792-2.944-2.304-4.224s-1.28-2.432-2.304-3.456c-2.048-3.584-3.968-7.040-5.76-10.368s-3.712-6.528-5.76-9.6c-2.048-3.584-3.968-6.912-5.76-9.984s-3.456-6.144-4.992-9.216c-6.144-10.752-12.288-20.736-18.432-29.952s-12.288-17.664-18.432-25.344c-6.144-7.68-11.904-13.696-17.28-18.048s-10.624-7.040-15.744-8.064c13.312-1.536 25.088-4.608 35.328-9.216s18.688-11.008 25.344-19.2c6.656-8.192 11.904-16.768 15.744-25.728s6.528-18.304 8.064-28.032v-9.216c0-0.512 0.256-1.024 0.768-1.536v-122.88h-66.816v96.768c0 9.728-1.408 18.816-4.224 27.264s-7.040 16-12.672 22.656c-5.12 7.168-12.928 12.416-23.424 15.744s-23.168 4.992-38.016 4.992l-60.672 1.536v-168.96h-66.816v538.368zM792.112 655.201l122.472-74.755 3.186-129.989c14.802 2.662 30.045 4.052 45.614 4.052 22.159 0 43.66-2.815 64.165-8.108l-4.076 166.553c-0.468 18.646-10.359 35.778-26.273 45.507l-150.135 91.649c-11.35-35.661-30.302-67.933-54.952-94.909zM326.513 647.591l-122.472-74.755-3.186-129.989c-14.802 2.662-30.045 4.052-45.614 4.052-22.159 0-43.66-2.815-64.165-8.108l4.076 166.553c0.468 18.646 10.359 35.778 26.273 45.507l150.135 91.649c11.35-35.661 30.302-67.933 54.952-94.909zM688.287 126.101l-125.976-68.686-114.167 62.235c-5.095-14.15-11.514-28.046-19.298-41.528-11.079-19.19-24.268-36.403-39.104-51.515l146.277-79.747c16.382-8.918 36.165-8.918 52.546 0l154.438 84.196c-25.209 27.66-43.68 60.209-54.718 95.045zM347.076 187.834c0-94.257-76.41-170.667-170.667-170.667s-170.667 76.41-170.667 170.667c0 94.257 76.41 170.667 170.667 170.667s170.667-76.41 170.667-170.667zM1115.076 187.834c0-94.257-76.41-170.667-170.667-170.667s-170.667 76.41-170.667 170.667c0 94.257 76.41 170.667 170.667 170.667s170.667-76.41 170.667-170.667zM731.076 785.167c0-94.257-76.41-170.667-170.667-170.667s-170.667 76.41-170.667 170.667c0 94.257 76.41 170.667 170.667 170.667s170.667-76.41 170.667-170.667z" />
</font>
</defs>
</svg>
